<svg id="Layer_1" data-name="Layer 1" xmlns="http://www.w3.org/2000/svg" viewBox="0 0 536.63 151.04"><defs><style>.cls-1,.cls-2{fill:#fff;}.cls-2{fill-rule:evenodd;}</style></defs><path class="cls-1" d="M125.14,19.6l51.15,91H155.82L149,98.49H101.25l-6.84,12.12H74Zm13.69,60.71L125.14,56,111.46,80.31Z" transform="translate(-9.72 -6.38)"/><polygon class="cls-1" points="282.99 50.42 282.99 104.22 265.3 104.22 265.3 19.4 277.8 19.4 306.59 48.97 335.38 19.4 347.88 19.4 347.88 104.22 330.18 104.22 330.18 50.42 306.59 74.66 282.99 50.42"/><path class="cls-1" d="M410.69,19.6l51.14,91H441.36l-6.78-12.12H386.8L380,110.61H359.55Zm13.68,60.71L410.69,56,397,80.31Z" transform="translate(-9.72 -6.38)"/><polygon class="cls-1" points="518.94 73.2 518.94 19.4 536.63 19.4 536.63 104.22 524.13 104.22 471.75 50.42 471.75 104.22 454.05 104.22 454.05 19.4 466.56 19.4 518.94 73.2"/><polygon class="cls-2" points="190.57 43.49 211.69 56.01 232.81 43.49 211.69 30.97 190.57 43.49"/><polygon class="cls-2" points="164.47 28.01 186.01 40.78 211.69 25.55 237.37 40.78 258.91 28.01 211.69 0 164.47 28.01"/><polygon class="cls-2" points="188.29 69.89 207.12 58.72 188.29 47.55 188.29 69.89"/><polygon class="cls-2" points="162.19 85.38 183.72 72.6 183.72 44.84 162.19 32.07 162.19 85.38"/><polygon class="cls-2" points="164.47 89.44 211.69 117.44 258.91 89.44 237.37 76.67 211.69 91.9 186.01 76.67 164.47 89.44"/><polygon class="cls-2" points="211.69 86.47 232.8 73.95 211.69 61.43 190.57 73.95 211.69 86.47"/><path class="cls-1" d="M68.72,25.78Q92.3,25.78,92.31,50v3q0,24.23-23.59,24.23H27.43v33.33H9.73V25.78ZM74.61,50q0-6.06-5.9-6.06H27.43V59.11H68.72q5.9,0,5.89-6.06V50Z" transform="translate(-9.72 -6.38)"/><path class="cls-1" d="M32.07,125.29q8.94,0,8.94,9.18h-6.7a2,2,0,0,0-2.24-2.3H18.66a2,2,0,0,0-2.23,2.3v1.14a2,2,0,0,0,2.23,2.29H32.07q8.94,0,8.94,9.2v1.14q0,9.18-8.94,9.18H18.66q-8.94,0-8.94-9.18h6.71a2,2,0,0,0,2.23,2.29H32.07a2,2,0,0,0,2.24-2.29V147.1a2,2,0,0,0-2.24-2.31H18.66q-8.94,0-8.94-9.18v-1.14q0-9.18,8.94-9.18Z" transform="translate(-9.72 -6.38)"/><path class="cls-1" d="M81.59,145.94v-9.18q0-11.47,11.17-11.47h8.94q11.17,0,11.17,11.47v9.18q0,11.49-11.17,11.48H92.76q-11.17,0-11.17-11.48m6.7-9.18v9.18c0,3.06,1.5,4.59,4.47,4.59h8.94q4.47,0,4.47-4.59v-9.18q0-4.59-4.47-4.59H92.76q-4.47,0-4.47,4.59" transform="translate(-9.72 -6.38)"/><polygon class="cls-1" points="175.01 118.9 175.01 125.79 150.43 125.79 150.43 131.52 172.77 131.52 172.77 138.41 150.43 138.41 150.43 151.04 143.72 151.04 143.72 118.9 175.01 118.9"/><polygon class="cls-1" points="234.58 125.79 234.58 151.04 227.88 151.04 227.88 125.79 215.59 125.79 215.59 118.9 246.87 118.9 246.87 125.79 234.58 125.79"/><polygon class="cls-1" points="312.03 139.29 312.03 118.9 318.73 118.9 318.73 151.04 314 151.04 303.09 139.84 292.19 151.04 287.45 151.04 287.45 118.9 294.15 118.9 294.15 139.29 303.09 130.1 312.03 139.29"/><path class="cls-1" d="M384.68,122.94l19.37,34.48H396.3l-2.57-4.59H375.62L373,157.42H365.3Zm5.18,23-5.19-9.22-5.18,9.22Z" transform="translate(-9.72 -6.38)"/><path class="cls-1" d="M463.24,125.29q8.94,0,8.94,9.18v1.14q0,9.18-8.94,9.18h-1.12l12.29,12.63h-9.47l-12.29-12.63h-5v12.63h-6.7V125.28h22.34Zm2.24,9.18a2,2,0,0,0-2.24-2.3H447.6v5.73h15.64a2,2,0,0,0,2.24-2.29Z" transform="translate(-9.72 -6.38)"/><polygon class="cls-1" points="534.32 118.9 534.32 125.79 509.74 125.79 509.74 131.52 532.08 131.52 532.08 138.41 509.74 138.41 509.74 144.15 534.32 144.15 534.32 151.04 503.04 151.04 503.04 118.9 534.32 118.9"/></svg>