<?xml version="1.0" encoding="utf-8"?>
<!-- Generator: Adobe Illustrator 16.0.0, SVG Export Plug-In . SVG Version: 6.00 Build 0)  -->
<!DOCTYPE svg PUBLIC "-//W3C//DTD SVG 1.1//EN" "http://www.w3.org/Graphics/SVG/1.1/DTD/svg11.dtd">
<svg version="1.1" id="Layer_1" xmlns="http://www.w3.org/2000/svg" xmlns:xlink="http://www.w3.org/1999/xlink" x="0px" y="0px"
	 width="1076px" height="402px" viewBox="0 0 1076 402" enable-background="new 0 0 1076 402" xml:space="preserve">
<g id="Layer_1_1_" display="none">
	<g display="inline">
		<path fill="#FFFFFF" d="M830.13,270.908c7.736-0.186,17.175-0.783,22.563,5.951c5.088,6.986,4.788,17.945-1.29,24.254
			c-5.698,5.435-14.079,4.455-21.285,4.467C830.061,294.023,830.05,282.465,830.13,270.908z"/>
		<path fill="#FFFFFF" d="M172.134,277.445c7.206-0.092,15-0.426,21.354,3.57c13.089,8.068,12.64,30.861-1.278,37.85
			c-6.17,3.35-13.376,2.809-20.145,2.751C172.031,306.893,171.916,292.158,172.134,277.445z"/>
		<path fill="#FFFFFF" d="M974.864,277.343c4.948,0.196,10.176-0.426,14.826,1.692c10.233,4.316,10.625,21.47,0.656,26.293
			c-4.801,2.336-10.292,2.118-15.482,1.979C974.854,297.314,974.83,287.323,974.864,277.343z"/>
		<path fill="#FFFFFF" d="M62.948,312.464c3.799-9.681,7.782-19.282,11.385-29.043c3.523,9.796,7.701,19.315,11.281,29.089
			C78.062,312.499,70.5,312.557,62.948,312.464z"/>
		<path fill="#FFFFFF" d="M761.107,314.939c-0.529-5.791,4.708-9.359,8.853-12.271c4.443,4.835,8.979,9.693,12.513,15.253
			c-3.28,2.717-7.113,5.342-11.604,4.985C766.172,323.354,761.154,319.924,761.107,314.939z"/>
		<path fill="#FFFFFF" d="M295.848,353.353c5.997-2.336,14.585,2.684,12.973,9.67c-1.819,8.381-14.815,9.324-18.729,2.05
			C287.203,360.433,290.967,354.539,295.848,353.353z"/>
	</g>
	<g display="inline">
		<path fill="#929292" d="M276.359,29.362c7.897-0.541,15.828-0.276,23.737-0.333c2.636-0.173,5.203,0.679,7.16,2.452
			c27.121,23.518,54.311,46.967,81.513,70.393c2.567,2.349,5.549,4.432,7.345,7.495c0.679,8.265,0.114,16.61,0.288,24.899
			c0.275,2.441-0.806,4.639-2.774,6.055c-30.183,25.453-60.355,50.938-90.445,76.496c-3.028,2.313-5.791,6.055-10.027,5.687
			c-9.681-0.034-19.374,0.104-29.055-0.162c1.485-1.485,3.004-2.946,4.604-4.327c32.474-27.375,64.879-54.854,97.329-82.262
			c5.1-4.352,10.326-8.53,15.207-13.135c-29.389-26.856-59.791-52.63-89.685-78.946C286.466,38.928,280.515,35.025,276.359,29.362z"
			/>
		<path fill="#929292" d="M436.276,29.362c9.105-0.564,18.246-0.346,27.362-0.161c0.393,24.658,0.046,49.338,0.186,74.007
			c0.725,5.284-4.651,7.748-7.828,10.856c-6.861,5.41-12.905,11.707-19.075,17.865c-0.99-8.023-0.622-16.127-0.668-24.186
			C436.276,81.612,436.208,55.481,436.276,29.362z"/>
		<path fill="#929292" d="M435.436,164.023c9.095-7.989,18.649-15.437,28.17-22.919c0.46,16.507,0.068,33.015,0.195,49.522
			c-0.138,10.625,0.334,21.25-0.276,31.864c-9.082-0.012-18.165,0.033-27.248-0.035c-0.069-15.989-0.023-31.967,0-47.945
			C436.299,171,436.023,167.488,435.436,164.023z"/>
	</g>
	<g display="inline">
		<path fill="#393939" d="M400.063,29.131c9.094-0.103,18.188-0.172,27.293,0.046c0.161,30.804,0.046,61.621,0.058,92.426
			c0.115,10.579-2.326,20.928-2.982,31.449c7.667-9.29,14.839-19.051,23.587-27.397c33.9-29.827,68.147-59.261,102.336-88.754
			c3.166-2.694,6.033-5.894,9.82-7.724c9.221-0.23,18.477-0.219,27.708,0.057c-3.143,3.879-7.033,7.011-10.821,10.2
			c-31.563,27.731-63.485,55.048-94.693,83.159c35.087,30.057,70.531,59.699,105.756,89.595c3.914,3.373,8.024,6.526,11.696,10.176
			c-10.74,0.092-21.516,0.322-32.255-0.069c-8.508-6.319-16.243-13.675-24.485-20.353c-26.154-22.089-52.24-44.272-78.462-66.293
			c-11.466,9.117-22.758,18.464-34.213,27.582c-1.3,1.174-3.211,2.302-2.958,4.34c-0.081,18.292,0.035,36.595-0.046,54.886
			c-9.128,0.012-18.258,0.035-27.387-0.011c-0.275-52.436-0.046-104.87-0.126-157.305C399.981,53.145,399.693,41.138,400.063,29.131
			z"/>
		<g>
			<path fill="#393939" d="M823.246,264.761c10.003,0.427,20.894-1.842,30.034,3.373c6.792,3.741,10.257,11.673,10.198,19.201
				c0.403,7.862-2.705,16.554-9.784,20.675c-7.033,4.455-15.667,3.914-23.634,3.925c0.023,5.181,0.047,10.373-0.022,15.564
				c-2.269-0.023-4.524-0.046-6.77-0.058C823.2,306.548,823.234,285.654,823.246,264.761z M830.13,270.908
				c-0.08,11.557-0.069,23.115-0.011,34.672c7.206-0.012,15.586,0.967,21.285-4.467c6.078-6.309,6.377-17.268,1.29-24.254
				C847.305,270.125,837.866,270.725,830.13,270.908z"/>
		</g>
		<path fill="#393939" d="M876.176,271.807c11.293,0.022,22.598,0,33.891,0.01c0.138,1.797,0.253,3.593,0.356,5.399
			c-9.22,0.333-18.44,0.104-27.663,0.161c0,8.52-0.045,17.049,0.046,25.579c8.116,0.046,16.231-0.035,24.358,0.058
			c0,1.795,0.012,3.603,0.035,5.41c-8.15,0-16.289,0-24.439,0c-0.011,4.409-0.011,8.818-0.011,13.228
			c9.589,0.195,19.202-0.288,28.779,0.311c-0.023,1.796-0.023,3.604,0,5.398c-11.788,0.185-23.575,0.185-35.363,0
			C876.21,308.85,876.188,290.328,876.176,271.807z"/>
		<path fill="#393939" d="M918.769,271.816c13.297-0.022,26.593,0.013,39.888-0.01c0.081,1.829,0.162,3.66,0.265,5.49
			c-5.732,0.139-11.465,0.057-17.198,0.104c-0.011,16.715,0.115,33.419-0.057,50.134c-2.015-0.059-4.006-0.104-5.986-0.138
			c-0.299-16.67,0.61-33.383-0.506-50.019c-5.479,0-10.959,0.127-16.427-0.207C918.746,275.375,918.757,273.602,918.769,271.816z"/>
		<path fill="#393939" d="M1038.488,271.807c11.292,0.022,22.585,0,33.89,0.01c0.126,1.797,0.242,3.593,0.357,5.412
			c-9.222,0.321-18.442,0.092-27.663,0.148c0,8.52-0.045,17.049,0.046,25.579c8.116,0.046,16.231-0.035,24.359,0.058
			c0,1.795,0.012,3.603,0.034,5.41c-8.149,0-16.288,0-24.438,0c-0.011,4.409-0.011,8.818-0.011,13.228
			c9.589,0.195,19.202-0.3,28.779,0.311c-0.023,1.796-0.023,3.604,0,5.398c-11.788,0.185-23.576,0.185-35.363,0
			C1038.521,308.838,1038.499,290.328,1038.488,271.807z"/>
		<g>
			<path fill="#393939" d="M968.303,271.852c9.395,0.322,19.903-1.762,28.133,3.994c7.806,5.33,9.106,16.346,6.24,24.715
				c-1.52,4.662-5.641,7.563-9.497,10.177c3.788,5.618,7.978,10.959,11.592,16.704c-2.578-0.059-5.202,0.321-7.7-0.357
				c-3.592-4.604-6.678-9.577-10.131-14.286c-4.039-0.022-8.08,0.059-12.108,0.069c0.011,4.835,0.034,9.669-0.012,14.493
				c-2.177,0.058-4.341,0.092-6.493,0.149C968.222,308.954,968.279,290.396,968.303,271.852z M974.864,277.343
				c-0.034,9.98-0.013,19.974,0,29.964c5.19,0.139,10.683,0.357,15.482-1.979c9.969-4.823,9.577-21.977-0.656-26.293
				C985.04,276.917,979.813,277.539,974.864,277.343z"/>
		</g>
	</g>
	<g display="inline">
		<g>
			<path fill="#525252" d="M610.077,29.189c22.505-0.265,45.021-0.161,67.526-0.058c9.934,1.29,20.029,0.162,29.906,2.015
				c24.83,3.143,50.823,10.176,69.219,28.111c8.267,7.299,13.192,17.647,15.863,28.192c4.226,17.163,0.242,36.007-10.313,50.144
				c-12.536,14.988-30.609,24.312-49.292,29.193c-31.047,8.622-63.556,6.769-95.407,6.976c-0.173,16.243,0.184,32.485-0.186,48.716
				c-9.116-0.011-18.233,0-27.34-0.011C610.02,158.049,609.962,93.619,610.077,29.189z M637.601,44.097
				c-0.148,38.275-0.011,76.551-0.058,114.816c24.957-0.081,50.248,1.416,74.895-3.442c16.853-3.35,34.017-10.602,44.457-24.853
				c13.516-20.628,10.972-52.125-9.196-67.63c-13.25-10.706-30.391-14.965-46.956-17.164c-8.023-1.462-16.231-0.483-24.289-1.635
				C663.513,43.844,650.551,44.039,637.601,44.097z"/>
		</g>
	</g>
	<g display="inline">
		<path fill="#FEFEFE" d="M637.601,44.097c12.95-0.058,25.912-0.253,38.853,0.092c8.058,1.151,16.266,0.173,24.289,1.635
			c16.564,2.199,33.706,6.458,46.956,17.164c20.168,15.506,22.712,47.002,9.196,67.63c-10.439,14.251-27.604,21.503-44.457,24.853
			c-24.646,4.858-49.938,3.361-74.895,3.442C637.59,120.648,637.451,82.372,637.601,44.097z"/>
		<path fill="#FEFEFE" d="M562.581,277.423c6.895-0.058,14.251-0.356,20.479,3.132c13.791,7.643,13.642,31.241-0.587,38.332
			c-6.17,3.305-13.354,2.832-20.109,2.706C562.35,306.87,561.959,292.135,562.581,277.423z"/>
		<path fill="#FEFEFE" d="M769.073,285.598c2.095-3.73,8.312-3.201,9.394,1.059c1.427,4.57-2.866,7.736-6.192,9.889
			C769.938,293.516,766.84,289.521,769.073,285.598z"/>
		<path fill="#FEFEFE" d="M453.233,312.464c3.799-9.67,7.759-19.271,11.396-28.998c3.533,9.763,7.724,19.271,11.257,29.032
			C468.336,312.51,460.785,312.557,453.233,312.464z"/>
		<path fill="#FEFEFE" d="M349.354,353.146c3.626,0.046,8.012-0.727,10.786,2.243c1.116,5.515-6.85,5.389-10.58,5.318
			C349.422,358.188,349.376,355.655,349.354,353.146z"/>
	</g>
	<g display="inline">
		<path fill="#3A3A3A" d="M0.003,264.703c2.245-0.012,4.489-0.035,6.746-0.046c0.276,11.915,0.023,23.84,0.127,35.755
			c8.162-12.41,17.958-23.645,26.73-35.628c2.832-0.069,5.652-0.093,8.472-0.104c-7.609,10.176-15.598,20.064-22.977,30.414
			c8.507,10.786,17.233,21.399,25.51,32.358c-2.982,0.035-5.975,0.022-8.968-0.058c-7.057-8.933-14.044-17.911-21.239-26.729
			c-2.981,3.558-8.035,6.746-7.563,11.949c-0.012,4.961,0.08,9.935-0.046,14.896c-2.256-0.022-4.512-0.046-6.769-0.104
			C0.014,306.501,0.06,285.607,0.003,264.703z"/>
		<path fill="#3A3A3A" d="M391.428,264.727c2.245-0.035,4.489-0.059,6.734-0.082c0.322,11.892,0.046,23.795,0.148,35.697
			c8.242-12.34,17.958-23.587,26.73-35.547c2.82-0.068,5.641-0.104,8.472-0.104c-7.586,10.199-15.621,20.053-22.965,30.425
			c8.542,10.739,17.233,21.365,25.498,32.324c-2.993,0.046-5.986,0.022-8.979-0.059c-7.265-8.841-13.757-18.373-21.653-26.649
			c-2.36,2.937-5.191,5.572-6.987,8.922c-0.368,5.939,0.046,11.915-0.195,17.865c-2.269-0.033-4.524-0.068-6.78-0.126
			C391.462,306.501,391.497,285.62,391.428,264.727z"/>
		<g>
			<path fill="#3A3A3A" d="M68.819,282.891c1.704-4.225,3.258-8.541,5.572-12.49c2.256,3.973,3.868,8.244,5.606,12.457
				c6.101,14.896,12.547,29.652,18.545,44.595c-2.222,0.012-4.443,0.012-6.665-0.011c-1.289-3.063-2.555-6.113-3.787-9.198
				c-9.151-0.011-18.303-0.011-27.455,0c-1.22,3.062-2.452,6.136-3.661,9.209c-2.072,0-4.133-0.011-6.205-0.011
				C56.444,312.453,62.925,297.787,68.819,282.891z M62.948,312.464c7.552,0.092,15.115,0.035,22.666,0.046
				c-3.58-9.773-7.759-19.293-11.281-29.089C70.729,293.184,66.747,302.783,62.948,312.464z"/>
		</g>
		<path fill="#3A3A3A" d="M108.384,270.607c3.822,2.694,6.435,6.632,9.485,10.084c9.048,11.225,18.798,21.86,27.662,33.233
			c0.081-14.056-0.253-28.11,0.172-42.167c1.842,0.023,3.684,0.034,5.537,0.047c0.161,16.301-0.034,32.611,0.104,48.911
			c0.046,2.613-0.138,5.228-0.552,7.816c-12.594-14.159-24.738-28.732-36.757-43.388c0.196,14.125,0.196,28.262,0,42.387
			c-1.945-0.046-3.891-0.081-5.836-0.092C108.384,308.493,108.015,289.545,108.384,270.607z"/>
		<g>
			<path fill="#3A3A3A" d="M165.78,271.783c9.762,0.38,20.111-1.383,29.239,3.074c18.142,7.941,19.57,37.136,3.223,47.656
				c-9.566,6.377-21.584,4.847-32.451,4.904C165.791,308.873,165.803,290.328,165.78,271.783z M172.134,277.445
				c-0.218,14.713-0.103,29.447-0.069,44.171c6.769,0.057,13.975,0.599,20.145-2.751c13.917-6.987,14.366-29.78,1.278-37.85
				C187.133,277.02,179.34,277.354,172.134,277.445z"/>
		</g>
		<path fill="#3A3A3A" d="M221.035,271.783c11.293,0.033,22.586,0.046,33.867,0c0,1.842,0,3.684,0.011,5.525
			c-9.186,0.16-18.361,0.034-27.547,0.08c-0.103,8.519-0.242,17.049,0.081,25.567c8.208,0.046,16.427-0.058,24.635,0.069
			c0,1.795,0.011,3.591,0.011,5.398c-8.242,0.011-16.496-0.012-24.738,0.011c-0.104,4.409-0.092,8.808-0.034,13.216
			c9.577,0.104,19.167-0.069,28.744,0.104c0,1.888,0.023,3.787,0.046,5.688c-11.684,0.058-23.38,0.092-35.064-0.023
			C221.046,308.873,221.058,290.328,221.035,271.783z"/>
		<path fill="#3A3A3A" d="M268.289,271.783c2.038,0.011,4.087,0.011,6.136,0.023c0.196,16.6-0.069,33.198,0.138,49.811
			c8.726,0.229,17.463-0.186,26.189,0.265c-0.046,1.83-0.08,3.672-0.104,5.515c-10.786,0.148-21.584,0.114-32.37,0.011
			C268.301,308.861,268.289,290.328,268.289,271.783z"/>
		<path fill="#3A3A3A" d="M310.882,271.783c2.038,0.011,4.086,0.011,6.135,0.023c0.208,16.6-0.057,33.198,0.138,49.811
			c8.726,0.219,17.463-0.186,26.189,0.253c-0.046,1.842-0.081,3.684-0.104,5.526c-10.787,0.148-21.584,0.114-32.37,0.011
			C310.893,308.861,310.882,290.328,310.882,271.783z"/>
		<g>
			<path fill="#3A3A3A" d="M463.11,273.061c0.126-2.025,2.866-2.268,3.039-0.125c7.481,18.199,15.31,36.261,22.667,54.518
				c-2.223,0.012-4.443,0-6.666-0.023c-1.29-3.039-2.544-6.09-3.729-9.163c-9.163-0.033-18.326-0.068-27.489,0.023
				c-1.23,3.05-2.463,6.102-3.694,9.163c-2.05-0.011-4.086-0.011-6.124-0.023C448.064,309.161,455.904,291.236,463.11,273.061z
				 M453.233,312.464c7.552,0.092,15.103,0.046,22.653,0.035c-3.534-9.763-7.724-19.271-11.257-29.032
				C460.992,293.193,457.032,302.794,453.233,312.464z"/>
		</g>
		<path fill="#3A3A3A" d="M498.668,270.643c3.649,2.418,6.078,6.148,8.956,9.383c9.186,11.442,19.155,22.252,28.146,33.854
			c0.174-14.032-0.413-28.099,0.312-42.12c1.796,0.023,3.603,0.034,5.41,0.047c0.022,18.844,0.311,37.699-0.149,56.544
			c-4.282-3.522-7.471-8.104-11.097-12.249c-8.588-10.015-16.911-20.26-25.66-30.147c-0.369,13.825-0.023,27.662-0.184,41.499
			c-1.969,0.012-3.927,0.012-5.883,0.022C498.623,308.527,498.335,289.58,498.668,270.643z"/>
		<g>
			<path fill="#3A3A3A" d="M556.065,271.794c10.279,0.347,21.354-1.521,30.747,3.812c13.237,6.873,16.207,25.313,9.865,37.873
				c-3.097,6.411-9.404,10.89-16.22,12.604c-7.942,2.164-16.266,1.254-24.393,1.324
				C556.077,308.861,556.088,290.328,556.065,271.794z M562.581,277.423c-0.622,14.712-0.23,29.446-0.219,44.17
				c6.757,0.126,13.939,0.6,20.109-2.706c14.229-7.091,14.378-30.689,0.587-38.332C576.832,277.066,569.476,277.366,562.581,277.423
				z"/>
		</g>
		<path fill="#3A3A3A" d="M611.32,271.794c11.28,0.022,22.563,0.035,33.854-0.011c-0.022,1.842-0.047,3.684-0.035,5.525
			c-9.116,0.16-18.223,0.045-27.34,0.08c-0.391,8.506-0.528,17.071,0.127,25.567c8.126,0.034,16.253-0.058,24.393,0.069
			c0,1.795,0.012,3.591,0.022,5.398c-8.195,0.011-16.393,0-24.577,0.011c-0.321,4.387-0.253,8.784-0.148,13.169
			c9.554,0.185,19.12-0.046,28.687,0.15c0,1.888,0.012,3.787,0.059,5.688c-11.686,0.046-23.368,0.104-35.041-0.035
			C611.332,308.873,611.343,290.328,611.32,271.794z"/>
		<path fill="#3A3A3A" d="M658.529,271.783c2.038,0.011,4.086,0.011,6.135,0.023c0.207,16.6-0.069,33.198,0.15,49.799
			c8.725,0.241,17.463-0.174,26.177,0.265c-0.058,1.831-0.081,3.672-0.104,5.526c-10.786,0.148-21.584,0.114-32.371,0.011
			C658.54,308.873,658.529,290.328,658.529,271.783z"/>
		<path fill="#3A3A3A" d="M701.121,271.783c2.038,0.011,4.086,0.011,6.135,0.023c0.208,16.6-0.068,33.198,0.15,49.799
			c8.726,0.241,17.463-0.174,26.177,0.265c-0.058,1.842-0.081,3.672-0.104,5.526c-10.786,0.148-21.584,0.114-32.37,0.011
			C701.132,308.861,701.121,290.328,701.121,271.783z"/>
		<path fill="#3A3A3A" d="M1016.8,271.863c2.152-0.023,4.317-0.035,6.492-0.047c0.012,18.558,0.046,37.113-0.011,55.671
			c-2.153-0.035-4.294-0.069-6.423-0.104C1016.754,308.873,1016.858,290.374,1016.8,271.863z"/>
		<g>
			<path fill="#3A3A3A" d="M763.387,285.32c2.026-8.817,16.762-9.463,19.893-1.105c0.921,2.061,0.853,4.409,0.587,6.608
				c-1.082,4.305-5.007,6.884-8.196,9.577c3.189,3.959,6.4,7.932,10.153,11.386c0.875-3.545,1.52-7.147,1.727-10.786
				c1.658,0.012,3.327,0.012,5.007-0.011c0.115,5.583-1.128,11.027-3.084,16.23c2.936,3.257,5.722,6.653,8.242,10.233
				c-2.244-0.092-4.582,0.346-6.733-0.368c-1.795-1.6-3.327-3.465-4.974-5.215c-6.412,6.273-16.863,8.149-24.83,3.845
				c-5.963-3.535-7.355-11.915-4.283-17.809c2.269-4.029,6.459-6.354,10.143-8.898C764.17,295.07,762.178,290.258,763.387,285.32z
				 M769.073,285.598c-2.233,3.924,0.864,7.918,3.201,10.946c3.326-2.151,7.619-5.317,6.192-9.89
				C777.385,282.396,771.168,281.867,769.073,285.598z M761.107,314.939c0.046,4.983,5.064,8.414,9.762,7.966
				c4.49,0.356,8.323-2.269,11.604-4.985c-3.534-5.56-8.069-10.418-12.513-15.253C765.815,305.581,760.578,309.149,761.107,314.939z
				"/>
		</g>
		<path fill="#3A3A3A" d="M350.896,320.028c2.337-4.294,10.556-2.337,9.509,2.958c-0.921,5.33-4.352,9.831-6.584,14.688
			c-1.324-0.035-2.647-0.068-3.96-0.092c0.897-3.154,2.567-6.17,2.774-9.474C351.563,325.61,348.824,322.732,350.896,320.028z"/>
		<g>
			<path fill="#3A3A3A" d="M835.793,350.958c1.716-0.425,3.488-0.483,5.261-0.644c3.776,7.298,7.747,14.526,11.004,22.091
				c-1.646-0.059-3.279-0.104-4.902-0.173c-1.048-2.05-1.98-4.167-3.247-6.09c-3.396-1.358-7.24-0.448-10.798-0.402
				c-1.231,2.222-2.417,4.466-3.626,6.7c-1.531-0.069-3.039-0.149-4.536-0.23C828.369,365.037,831.938,357.9,835.793,350.958z
				 M834.148,362.954c2.785,0.092,5.594,0.092,8.402,0.034c-1.255-2.797-2.59-5.548-3.982-8.276
				C836.934,357.371,835.472,360.134,834.148,362.954z"/>
		</g>
	</g>
	<g display="inline">
		<g>
			<path fill="#3B3B3B" d="M141.479,350.579c1.773-0.046,3.557-0.092,5.341-0.15c3.684,7.287,7.586,14.458,10.924,21.907
				c-1.611,0.011-3.211,0.011-4.812,0c-1.232-2.279-2.452-4.559-3.649-6.85c-3.488,0.012-6.965,0.012-10.441,0.022
				c-1.174,2.302-2.371,4.604-3.58,6.896c-1.543-0.035-3.074-0.069-4.604-0.115C133.904,364.876,137.922,357.842,141.479,350.579z
				 M139.868,362.977c2.797,0.069,5.594,0.069,8.392,0c-1.255-2.797-2.625-5.536-4.029-8.254
				C142.584,357.359,141.088,360.099,139.868,362.977z"/>
		</g>
		<g>
			<path fill="#3B3B3B" d="M293.488,350.924c5.226-1.243,11.189-1.036,15.897,1.819c5.998,3.661,5.813,13.848-0.299,17.325
				c-5.848,3.521-13.641,3.533-19.639,0.369c-5.065-2.603-6.584-9.693-3.592-14.379C287.49,353.296,290.541,351.845,293.488,350.924
				z M295.848,353.353c-4.881,1.187-8.646,7.08-5.756,11.72c3.914,7.274,16.91,6.331,18.729-2.05
				C310.433,356.036,301.845,351.017,295.848,353.353z"/>
		</g>
		<path fill="#3B3B3B" d="M453.406,350.556c5.801-0.104,11.603-0.092,17.403-0.034c-0.033,0.689-0.079,2.071-0.104,2.763
			c-4.351,0.058-8.69-0.011-13.02,0.115c-0.08,2.037-0.126,4.087-0.16,6.136c4.028,0.242,8.161-0.368,12.145,0.46
			c0.184,0.496,0.552,1.474,0.725,1.969c-4.225,0.552-8.507,0.369-12.754,0.472c-0.081,2.371-0.114,4.731-0.114,7.114
			c4.547,0.149,9.104,0.08,13.664,0.104c0.08,0.655,0.254,1.968,0.334,2.624c-6.043,0.161-12.086,0.104-18.131,0.058
			C453.406,365.083,453.383,357.82,453.406,350.556z"/>
		<g>
			<path fill="#3B3B3B" d="M647.995,350.694c1.772-0.104,3.569-0.195,5.365-0.3c3.684,7.299,7.667,14.458,10.913,21.965
				c-1.611-0.013-3.211-0.023-4.813-0.059c-1.22-2.279-2.429-4.559-3.648-6.826c-3.478,0-6.953,0.012-10.418,0.104
				c-1.196,2.291-2.405,4.57-3.614,6.85c-1.531-0.046-3.052-0.114-4.569-0.173C640.479,364.911,644.415,357.889,647.995,350.694z
				 M646.407,362.965c2.797,0.081,5.594,0.092,8.402,0.023c-1.255-2.797-2.612-5.548-4.018-8.266
				C649.123,357.348,647.696,360.123,646.407,362.965z"/>
		</g>
		<path fill="#3B3B3B" d="M879.986,350.521c1.564,0.068,3.131,0.138,4.708,0.194c1.888,5.526,3.765,11.051,5.825,16.521
			c2.348-5.284,4.028-10.845,6.516-16.06c1.324-1.14,3.28-0.449,4.893-0.726c1.91,5.595,3.972,11.144,5.883,16.738
			c2.198-5.41,4.282-10.867,6.319-16.334c1.658-0.14,3.339-0.276,5.021-0.415c-2.901,7.366-6.067,14.618-9.188,21.895
			c-1.531,0.011-3.05,0.023-4.547,0.034c-2.188-5.354-3.868-10.901-6.193-16.196c-2.324,5.399-4.432,10.878-6.677,16.3
			c-1.6-0.195-3.314,0.104-4.766-0.645C884.959,364.818,882.082,357.797,879.986,350.521z"/>
	</g>
	<g display="inline">
		<path fill="#3D3D3D" d="M184.67,350.51c7.955-0.035,15.921-0.046,23.875,0.012c-0.011,0.701-0.035,2.105-0.046,2.809
			c-3.177,0.012-6.354,0.022-9.531,0.058c-0.092,6.319-0.011,12.651-0.104,18.994c-1.45-0.022-2.889-0.035-4.328-0.046
			c0.034-6.332,0.104-12.674-0.104-19.006c-3.258,0.012-6.527,0.012-9.785,0.012C184.658,352.64,184.67,351.212,184.67,350.51z"/>
		<path fill="#3D3D3D" d="M234.169,350.51c7.966-0.035,15.932-0.046,23.91,0.012c-0.012,0.701-0.035,2.105-0.046,2.809
			c-3.2,0.012-6.389,0.022-9.566,0.058c-0.092,6.331-0.011,12.651-0.104,18.982c-1.451-0.011-2.89-0.023-4.329-0.034
			c0.035-6.332,0.104-12.674-0.103-19.006c-3.258,0.012-6.527,0.012-9.785,0.012C234.158,352.64,234.158,351.212,234.169,350.51z"/>
		<path fill="#3D3D3D" d="M499.682,350.66c1.704-0.092,3.431-0.161,5.157-0.208c2.417,3.212,4.846,6.424,7.265,9.646
			c2.75-3.085,5.26-6.377,7.793-9.635c1.727,0.046,3.464,0.104,5.202,0.185c-2.751,3.567-5.756,6.918-8.749,10.279
			c-3.223,2.901-1.588,7.599-2.037,11.396c-1.496,0.022-2.993,0.046-4.489,0.081c-0.058-2.959,0.184-5.94-0.266-8.875
			C506.669,358.948,502.583,355.252,499.682,350.66z"/>
		<path fill="#3D3D3D" d="M780.413,350.544c1.473-0.011,2.958-0.022,4.466-0.011c0.059,6.331,0.059,12.674,0.012,19.017
			c4.374,0.126,8.761,0.091,13.157,0.104c0.035,0.655,0.115,1.968,0.161,2.624c-5.928,0.185-11.868,0.139-17.796,0.058
			C780.447,365.072,780.447,357.808,780.413,350.544z"/>
	</g>
	<g display="inline">
		<g>
			<path fill="#3C3C3C" d="M345.22,350.717c6.032-0.194,12.951-1.508,18.211,2.165c3.431,2.924,0.587,7.104-2.268,9.117
				c2.268,3.12,3.58,6.78,4.858,10.395c-1.6-0.033-3.177-0.068-4.766-0.103c-1.128-2.648-1.899-5.491-3.58-7.84
				c-2.395-1.692-5.503-1.128-8.243-1.347c-0.08,3.085-0.115,6.182-0.172,9.29c-1.359-0.023-2.717-0.034-4.075-0.047
				C345.198,365.141,345.152,357.923,345.22,350.717z M349.354,353.146c0.023,2.509,0.069,5.041,0.207,7.563
				c3.73,0.069,11.696,0.196,10.58-5.318C357.365,352.42,352.979,353.192,349.354,353.146z"/>
		</g>
		<path fill="#3C3C3C" d="M397.022,350.429c1.864,0.253,4.225-0.46,5.675,1.117c4.708,4.962,9.348,10.003,14.079,14.953
			c0.046-5.26,0.012-10.521-0.034-15.782c1.438-0.114,2.9-0.218,4.363-0.299c0.08,7.31,0.08,14.631,0,21.941
			c-1.566,0-3.119,0-4.662,0.011c-5.262-5.41-10.073-11.247-15.553-16.415c-0.058,5.468,0.392,10.936,0.241,16.427
			c-1.381-0.012-2.762-0.022-4.132-0.022C396.988,365.049,396.954,357.739,397.022,350.429z"/>
		<path fill="#3C3C3C" d="M555.869,352.191c4.766-2.832,10.706-2.199,15.829-0.771c-1.117,3.765-5.238,1.335-7.989,1.681
			c-2.222-0.253-6.435,1.151-5.271,3.994c3.972,3.396,10.486,2.431,13.71,6.873c0.667,2.509,0.253,5.525-2.292,6.804
			c-5.423,2.729-12.56,2.879-17.739-0.483c3.937-2.797,8.853,1.104,13.088-0.99c1.715-0.482,2.302-2.313,3.247-3.615
			c-3.65-2.763-8.313-3.269-12.294-5.307C552.876,359.017,552.634,353.699,555.869,352.191z"/>
	</g>
	<g display="inline">
		<path fill="#404040" d="M689.875,350.579c8.208-0.023,16.45-0.449,24.634,0.288c-1.023,4.374-6.884,1.817-10.142,2.544
			c-0.058,6.331-0.012,12.663-0.069,18.994c-1.473-0.023-2.936-0.046-4.386-0.081c0.068-6.31,0.035-12.617,0.012-18.925
			c-3.107-0.046-6.216-0.059-9.313,0.012C690.427,352.708,690.058,351.292,689.875,350.579z"/>
	</g>
	<g display="inline">
		<path fill="#FDFDFD" d="M139.868,362.977c1.22-2.878,2.717-5.617,4.363-8.254c1.404,2.718,2.774,5.457,4.029,8.254
			C145.462,363.046,142.665,363.046,139.868,362.977z"/>
	</g>
	<g display="inline">
		<path fill="#FBFBFB" d="M646.407,362.965c1.289-2.843,2.716-5.618,4.385-8.242c1.405,2.718,2.763,5.469,4.018,8.266
			C652.001,363.058,649.204,363.046,646.407,362.965z"/>
	</g>
	<g display="inline">
		<path fill="#FCFCFC" d="M834.148,362.954c1.323-2.82,2.785-5.583,4.42-8.242c1.393,2.729,2.729,5.479,3.982,8.276
			C839.742,363.046,836.934,363.046,834.148,362.954z"/>
	</g>
</g>
<g id="Layer_3">
	<g>
		<path fill="#3E8EDE" d="M276.356,28.52c7.897-0.541,15.828-0.276,23.737-0.333c2.636-0.173,5.203,0.679,7.16,2.451
			c27.121,23.519,54.311,46.967,81.513,70.393c2.567,2.349,5.549,4.433,7.345,7.495c0.679,8.265,0.114,16.61,0.288,24.898
			c0.275,2.441-0.807,4.64-2.774,6.055c-30.183,25.453-60.355,50.938-90.445,76.496c-3.028,2.313-5.791,6.055-10.027,5.687
			c-9.681-0.034-19.374,0.104-29.055-0.162c1.485-1.483,3.004-2.946,4.604-4.327c32.474-27.375,64.879-54.853,97.329-82.262
			c5.1-4.352,10.326-8.53,15.207-13.135c-29.389-26.856-59.791-52.63-89.685-78.946C286.463,38.086,280.512,34.184,276.356,28.52z"
			/>
		<path fill="#3E8EDE" d="M436.273,28.52c9.105-0.563,18.245-0.346,27.362-0.161c0.393,24.658,0.046,49.339,0.186,74.008
			c0.725,5.283-4.651,7.747-7.828,10.855c-6.861,5.41-12.905,11.707-19.075,17.865c-0.99-8.023-0.622-16.127-0.668-24.186
			C436.273,80.771,436.205,54.64,436.273,28.52z"/>
		<path fill="#3E8EDE" d="M435.433,163.182c9.095-7.989,18.649-15.438,28.169-22.92c0.461,16.508,0.069,33.016,0.196,49.522
			c-0.138,10.625,0.334,21.251-0.276,31.864c-9.082-0.012-18.165,0.033-27.248-0.035c-0.069-15.989-0.023-31.967,0-47.945
			C436.296,170.157,436.021,166.646,435.433,163.182z"/>
	</g>
	<g>
		<path fill="#005DAA" d="M400.059,28.289c9.095-0.103,18.188-0.172,27.293,0.047c0.162,30.804,0.047,61.62,0.059,92.426
			c0.115,10.579-2.326,20.928-2.982,31.449c7.667-9.29,14.838-19.052,23.587-27.397c33.9-29.826,68.147-59.261,102.336-88.754
			c3.166-2.693,6.033-5.894,9.82-7.724c9.221-0.23,18.477-0.219,27.708,0.057c-3.143,3.88-7.033,7.011-10.821,10.2
			c-31.563,27.73-63.485,55.048-94.693,83.158c35.087,30.057,70.53,59.699,105.756,89.595c3.914,3.373,8.024,6.526,11.696,10.176
			c-10.74,0.092-21.516,0.322-32.256-0.068c-8.507-6.319-16.242-13.676-24.484-20.352c-26.154-22.091-52.24-44.273-78.462-66.295
			c-11.466,9.117-22.758,18.464-34.213,27.582c-1.301,1.174-3.211,2.302-2.958,4.34c-0.081,18.291,0.035,36.594-0.046,54.885
			c-9.128,0.014-18.258,0.035-27.387-0.01c-0.275-52.437-0.046-104.871-0.126-157.306C399.978,52.303,399.69,40.296,400.059,28.289z
			"/>
		<g>
			<path fill="#FFFFFF" d="M823.243,263.919c10.003,0.427,20.894-1.843,30.034,3.373c6.792,3.741,10.257,11.673,10.198,19.2
				c0.403,7.861-2.705,16.555-9.784,20.676c-7.033,4.454-15.667,3.913-23.634,3.925c0.023,5.181,0.046,10.372-0.022,15.563
				c-2.269-0.023-4.524-0.046-6.77-0.059C823.197,305.706,823.231,284.813,823.243,263.919z M830.127,270.066
				c-0.08,11.557-0.069,23.113-0.011,34.672c7.206-0.012,15.586,0.968,21.285-4.467c6.077-6.309,6.377-17.268,1.29-24.254
				C847.302,269.283,837.863,269.882,830.127,270.066z"/>
		</g>
		<path fill="#FFFFFF" d="M876.173,270.964c11.293,0.022,22.597,0,33.89,0.011c0.139,1.797,0.254,3.592,0.357,5.399
			c-9.22,0.334-18.441,0.104-27.663,0.161c0,8.52-0.045,17.049,0.046,25.578c8.116,0.047,16.231-0.034,24.358,0.058
			c0,1.796,0.012,3.604,0.035,5.411c-8.15,0-16.289,0-24.439,0c-0.011,4.409-0.011,8.818-0.011,13.227
			c9.589,0.196,19.202-0.287,28.779,0.312c-0.023,1.796-0.023,3.604,0,5.397c-11.788,0.186-23.575,0.186-35.363,0
			C876.208,308.008,876.185,289.484,876.173,270.964z"/>
		<path fill="#FFFFFF" d="M918.766,270.975c13.297-0.021,26.593,0.012,39.888-0.011c0.081,1.83,0.162,3.661,0.265,5.491
			c-5.732,0.138-11.465,0.057-17.198,0.104c-0.011,16.715,0.115,33.418-0.057,50.134c-2.015-0.06-4.006-0.104-5.986-0.14
			c-0.299-16.669,0.61-33.383-0.506-50.018c-5.479,0-10.959,0.127-16.427-0.207C918.743,274.532,918.754,272.76,918.766,270.975z"/>
		<path fill="#FFFFFF" d="M1038.485,270.964c11.292,0.022,22.585,0,33.89,0.011c0.126,1.797,0.242,3.592,0.357,5.411
			c-9.222,0.322-18.442,0.093-27.663,0.149c0,8.52-0.045,17.049,0.046,25.578c8.116,0.047,16.23-0.034,24.359,0.058
			c0,1.796,0.012,3.604,0.034,5.411c-8.149,0-16.288,0-24.438,0c-0.011,4.409-0.011,8.818-0.011,13.227
			c9.589,0.196,19.202-0.299,28.778,0.312c-0.022,1.796-0.022,3.604,0,5.397c-11.787,0.186-23.576,0.186-35.362,0
			C1038.52,307.996,1038.496,289.484,1038.485,270.964z"/>
		<g>
			<path fill="#FFFFFF" d="M968.3,271.01c9.395,0.322,19.903-1.762,28.133,3.994c7.806,5.33,9.106,16.348,6.24,24.717
				c-1.52,4.661-5.641,7.563-9.497,10.176c3.788,5.617,7.978,10.959,11.592,16.702c-2.578-0.058-5.203,0.322-7.7-0.355
				c-3.592-4.604-6.678-9.577-10.131-14.286c-4.04-0.023-8.081,0.058-12.108,0.069c0.011,4.835,0.034,9.669-0.012,14.491
				c-2.177,0.06-4.341,0.094-6.493,0.15C968.219,308.111,968.276,289.555,968.3,271.01z M974.861,276.501
				c-0.034,9.979-0.013,19.974,0,29.964c5.19,0.139,10.683,0.357,15.482-1.979c9.969-4.823,9.577-21.977-0.656-26.293
				C985.037,276.075,979.811,276.695,974.861,276.501z"/>
		</g>
	</g>
	<g>
		<g>
			<path fill="#0D2240" d="M610.074,28.347c22.505-0.265,45.021-0.16,67.525-0.058c9.935,1.29,20.03,0.162,29.907,2.015
				c24.83,3.143,50.823,10.176,69.219,28.111c8.267,7.299,13.192,17.647,15.863,28.192c4.225,17.163,0.242,36.007-10.313,50.144
				c-12.536,14.988-30.609,24.313-49.293,29.193c-31.046,8.622-63.555,6.769-95.406,6.976c-0.173,16.243,0.184,32.484-0.186,48.717
				c-9.117-0.011-18.233,0-27.34-0.011C610.017,157.207,609.959,92.777,610.074,28.347z M637.598,43.255
				c-0.148,38.275-0.011,76.551-0.058,114.815c24.957-0.081,50.248,1.416,74.894-3.442c16.854-3.35,34.018-10.602,44.458-24.853
				c13.516-20.629,10.972-52.125-9.196-67.631c-13.25-10.706-30.391-14.965-46.956-17.163c-8.023-1.462-16.231-0.483-24.289-1.635
				C663.51,43.002,650.548,43.197,637.598,43.255z"/>
		</g>
	</g>
	<g>
		<path fill="#FFFFFF" d="M0,263.861c2.245-0.012,4.489-0.035,6.746-0.047c0.276,11.914,0.023,23.84,0.127,35.756
			c8.162-12.41,17.958-23.646,26.73-35.629c2.832-0.069,5.652-0.092,8.472-0.104c-7.609,10.177-15.598,20.063-22.977,30.414
			c8.507,10.786,17.233,21.399,25.51,32.358c-2.982,0.034-5.975,0.021-8.968-0.059c-7.057-8.933-14.044-17.912-21.239-26.729
			c-2.981,3.557-8.035,6.746-7.563,11.949c-0.012,4.961,0.08,9.935-0.046,14.896c-2.256-0.022-4.512-0.046-6.769-0.104
			C0.011,305.659,0.057,284.766,0,263.861z"/>
		<path fill="#FFFFFF" d="M391.425,263.884c2.245-0.034,4.489-0.058,6.734-0.079c0.322,11.891,0.046,23.793,0.148,35.696
			c8.242-12.341,17.958-23.588,26.73-35.548c2.82-0.069,5.641-0.104,8.472-0.104c-7.586,10.198-15.621,20.053-22.965,30.424
			c8.542,10.74,17.233,21.365,25.498,32.324c-2.993,0.047-5.986,0.023-8.979-0.058c-7.265-8.841-13.757-18.372-21.653-26.649
			c-2.36,2.938-5.191,5.572-6.987,8.922c-0.368,5.94,0.046,11.914-0.196,17.866c-2.268-0.034-4.523-0.068-6.779-0.127
			C391.459,305.659,391.494,284.777,391.425,263.884z"/>
		<g>
			<path fill="#FFFFFF" d="M68.816,282.049c1.704-4.225,3.258-8.541,5.572-12.49c2.256,3.974,3.868,8.244,5.606,12.457
				c6.101,14.896,12.547,29.652,18.545,44.596c-2.222,0.012-4.443,0.012-6.665-0.013c-1.289-3.062-2.555-6.111-3.787-9.196
				c-9.151-0.013-18.303-0.013-27.455,0c-1.22,3.062-2.452,6.136-3.661,9.209c-2.072,0-4.133-0.013-6.205-0.013
				C56.441,311.611,62.922,296.945,68.816,282.049z M62.945,311.622c7.552,0.093,15.115,0.035,22.666,0.046
				c-3.58-9.771-7.759-19.293-11.281-29.089C70.727,292.341,66.744,301.941,62.945,311.622z"/>
		</g>
		<path fill="#FFFFFF" d="M108.381,269.768c3.822,2.692,6.435,6.631,9.485,10.084c9.048,11.224,18.798,21.859,27.662,33.232
			c0.081-14.057-0.253-28.109,0.172-42.166c1.842,0.021,3.684,0.034,5.537,0.046c0.161,16.302-0.034,32.612,0.104,48.912
			c0.046,2.613-0.138,5.227-0.552,7.816c-12.594-14.159-24.738-28.732-36.757-43.388c0.196,14.125,0.196,28.262,0,42.387
			c-1.945-0.046-3.891-0.081-5.836-0.094C108.381,307.651,108.012,288.703,108.381,269.768z"/>
		<g>
			<path fill="#FFFFFF" d="M165.777,270.939c9.762,0.381,20.111-1.381,29.239,3.074c18.142,7.942,19.57,37.137,3.223,47.657
				c-9.566,6.377-21.584,4.846-32.451,4.904C165.788,308.031,165.8,289.484,165.777,270.939z M172.131,276.604
				c-0.218,14.713-0.103,29.446-0.069,44.171c6.769,0.057,13.975,0.599,20.145-2.753c13.917-6.986,14.366-29.779,1.278-37.85
				C187.13,276.178,179.337,276.512,172.131,276.604z"/>
		</g>
		<path fill="#FFFFFF" d="M221.032,270.939c11.293,0.035,22.586,0.047,33.867,0c0,1.843,0,3.686,0.011,5.525
			c-9.186,0.161-18.361,0.035-27.547,0.081c-0.103,8.519-0.242,17.05,0.081,25.567c8.208,0.046,16.427-0.059,24.635,0.068
			c0,1.795,0.011,3.592,0.011,5.398c-8.242,0.011-16.496-0.012-24.738,0.011c-0.104,4.409-0.092,8.809-0.034,13.216
			c9.577,0.104,19.167-0.068,28.744,0.104c0,1.888,0.023,3.787,0.046,5.687c-11.684,0.059-23.38,0.094-35.064-0.021
			C221.043,308.031,221.055,289.484,221.032,270.939z"/>
		<path fill="#FFFFFF" d="M268.286,270.939c2.038,0.013,4.087,0.013,6.136,0.023c0.196,16.6-0.069,33.199,0.138,49.812
			c8.726,0.229,17.463-0.186,26.189,0.265c-0.046,1.83-0.081,3.672-0.104,5.514c-10.787,0.149-21.584,0.115-32.371,0.013
			C268.298,308.02,268.286,289.484,268.286,270.939z"/>
		<path fill="#FFFFFF" d="M310.879,270.939c2.038,0.013,4.086,0.013,6.135,0.023c0.208,16.6-0.057,33.199,0.138,49.812
			c8.726,0.219,17.463-0.186,26.189,0.253c-0.046,1.842-0.081,3.684-0.104,5.524c-10.787,0.149-21.584,0.115-32.371,0.013
			C310.891,308.02,310.879,289.484,310.879,270.939z"/>
		<g>
			<path fill="#FFFFFF" d="M463.107,272.219c0.126-2.025,2.866-2.268,3.039-0.127c7.481,18.2,15.31,36.262,22.666,54.52
				c-2.222,0.012-4.442,0-6.665-0.023c-1.29-3.038-2.545-6.09-3.729-9.163c-9.163-0.034-18.326-0.068-27.489,0.023
				c-1.23,3.05-2.463,6.102-3.694,9.163c-2.05-0.013-4.086-0.013-6.124-0.023C448.063,308.318,455.901,290.396,463.107,272.219z
				 M453.23,311.622c7.552,0.093,15.103,0.046,22.653,0.035c-3.534-9.763-7.724-19.271-11.257-29.032
				C460.989,292.354,457.029,301.952,453.23,311.622z"/>
		</g>
		<path fill="#FFFFFF" d="M498.666,269.801c3.649,2.418,6.078,6.147,8.956,9.383c9.186,11.441,19.155,22.252,28.146,33.854
			c0.174-14.032-0.414-28.101,0.312-42.12c1.796,0.021,3.603,0.034,5.41,0.046c0.022,18.845,0.311,37.7-0.149,56.545
			c-4.282-3.522-7.471-8.104-11.097-12.249c-8.588-10.015-16.911-20.26-25.66-30.148c-0.369,13.826-0.023,27.663-0.184,41.5
			c-1.969,0.012-3.927,0.012-5.883,0.021C498.62,307.686,498.332,288.736,498.666,269.801z"/>
		<g>
			<path fill="#FFFFFF" d="M556.063,270.952c10.279,0.346,21.354-1.521,30.746,3.812c13.238,6.871,16.208,25.313,9.866,37.872
				c-3.097,6.411-9.405,10.891-16.22,12.604c-7.942,2.164-16.266,1.255-24.393,1.324
				C556.074,308.02,556.085,289.484,556.063,270.952z M562.578,276.581c-0.622,14.712-0.23,29.446-0.219,44.17
				c6.757,0.127,13.939,0.599,20.109-2.705c14.229-7.092,14.378-30.69,0.587-38.333
				C576.829,276.225,569.473,276.523,562.578,276.581z"/>
		</g>
		<path fill="#FFFFFF" d="M611.317,270.952c11.28,0.022,22.563,0.034,33.854-0.013c-0.022,1.843-0.047,3.686-0.035,5.525
			c-9.117,0.161-18.223,0.046-27.34,0.081c-0.391,8.507-0.529,17.071,0.127,25.567c8.126,0.033,16.253-0.059,24.393,0.068
			c0,1.795,0.012,3.592,0.022,5.398c-8.196,0.011-16.393,0-24.577,0.011c-0.321,4.387-0.253,8.784-0.148,13.17
			c9.554,0.185,19.12-0.046,28.687,0.149c0,1.888,0.011,3.787,0.059,5.687c-11.686,0.047-23.368,0.104-35.041-0.034
			C611.329,308.031,611.34,289.484,611.317,270.952z"/>
		<path fill="#FFFFFF" d="M658.526,270.939c2.038,0.013,4.086,0.013,6.135,0.023c0.207,16.6-0.069,33.199,0.149,49.799
			c8.726,0.242,17.464-0.173,26.178,0.266c-0.058,1.83-0.081,3.672-0.104,5.524c-10.786,0.149-21.584,0.115-32.371,0.013
			C658.537,308.031,658.526,289.484,658.526,270.939z"/>
		<path fill="#FFFFFF" d="M701.118,270.939c2.038,0.013,4.086,0.013,6.135,0.023c0.208,16.6-0.068,33.199,0.15,49.799
			c8.726,0.242,17.463-0.173,26.177,0.266c-0.058,1.842-0.081,3.672-0.104,5.524c-10.786,0.149-21.584,0.115-32.37,0.013
			C701.129,308.02,701.118,289.484,701.118,270.939z"/>
		<path fill="#FFFFFF" d="M1016.797,271.021c2.152-0.023,4.317-0.035,6.492-0.047c0.012,18.557,0.046,37.112-0.011,55.67
			c-2.153-0.034-4.294-0.068-6.423-0.104C1016.751,308.031,1016.855,289.531,1016.797,271.021z"/>
		<g>
			<path fill="#FFFFFF" d="M763.384,284.479c2.026-8.817,16.761-9.463,19.893-1.104c0.921,2.062,0.853,4.409,0.587,6.606
				c-1.082,4.307-5.008,6.885-8.196,9.578c3.189,3.959,6.4,7.932,10.153,11.386c0.875-3.546,1.52-7.148,1.727-10.786
				c1.658,0.012,3.327,0.012,5.007-0.012c0.115,5.582-1.128,11.027-3.084,16.23c2.936,3.257,5.722,6.653,8.242,10.233
				c-2.244-0.094-4.582,0.346-6.733-0.368c-1.796-1.602-3.327-3.466-4.974-5.215c-6.412,6.272-16.864,8.149-24.83,3.845
				c-5.963-3.534-7.355-11.914-4.283-17.81c2.269-4.028,6.458-6.354,10.143-8.897C764.167,294.229,762.175,289.416,763.384,284.479z
				 M769.07,284.755c-2.233,3.925,0.863,7.919,3.201,10.947c3.326-2.152,7.619-5.318,6.192-9.89
				C777.382,281.555,771.166,281.023,769.07,284.755z M761.104,314.098c0.047,4.984,5.065,8.414,9.763,7.967
				c4.49,0.356,8.323-2.269,11.604-4.984c-3.534-5.562-8.069-10.418-12.513-15.253C765.813,304.738,760.575,308.307,761.104,314.098
				z"/>
		</g>
		<path fill="#FFFFFF" d="M350.893,319.186c2.337-4.294,10.556-2.337,9.509,2.958c-0.921,5.33-4.352,9.831-6.584,14.689
			c-1.324-0.035-2.647-0.069-3.96-0.093c0.897-3.154,2.567-6.17,2.774-9.475C351.561,324.769,348.821,321.891,350.893,319.186z"/>
		<g>
			<path fill="#FFFFFF" d="M835.791,350.116c1.716-0.425,3.488-0.483,5.261-0.645c3.776,7.298,7.747,14.527,11.004,22.091
				c-1.646-0.059-3.279-0.104-4.902-0.174c-1.048-2.049-1.98-4.167-3.247-6.089c-3.396-1.357-7.24-0.449-10.798-0.403
				c-1.231,2.223-2.417,4.468-3.626,6.7c-1.531-0.068-3.039-0.148-4.536-0.229C828.366,364.195,831.934,357.059,835.791,350.116z
				 M834.145,362.112c2.786,0.092,5.595,0.092,8.403,0.034c-1.255-2.799-2.59-5.55-3.982-8.276
				C836.931,356.529,835.469,359.292,834.145,362.112z"/>
		</g>
	</g>
	<g>
		<g>
			<path fill="#FFFFFF" d="M141.476,349.737c1.773-0.046,3.557-0.093,5.341-0.15c3.684,7.287,7.586,14.459,10.924,21.907
				c-1.611,0.011-3.211,0.011-4.812,0c-1.232-2.279-2.452-4.56-3.649-6.851c-3.488,0.013-6.965,0.013-10.441,0.022
				c-1.174,2.303-2.371,4.604-3.58,6.896c-1.543-0.035-3.074-0.069-4.604-0.115C133.901,364.034,137.919,357,141.476,349.737z
				 M139.865,362.135c2.797,0.069,5.594,0.069,8.392,0c-1.255-2.797-2.625-5.537-4.029-8.254
				C142.581,356.518,141.085,359.257,139.865,362.135z"/>
		</g>
		<g>
			<path fill="#FFFFFF" d="M293.485,350.082c5.226-1.243,11.189-1.035,15.897,1.819c5.998,3.659,5.813,13.848-0.299,17.323
				c-5.848,3.522-13.641,3.534-19.639,0.369c-5.065-2.602-6.584-9.692-3.592-14.378
				C287.488,352.454,290.538,351.003,293.485,350.082z M295.845,352.511c-4.881,1.188-8.646,7.08-5.756,11.721
				c3.914,7.273,16.911,6.33,18.729-2.051C310.43,355.193,301.843,350.175,295.845,352.511z"/>
		</g>
		<path fill="#FFFFFF" d="M453.403,349.714c5.801-0.104,11.603-0.092,17.403-0.034c-0.033,0.69-0.08,2.072-0.104,2.764
			c-4.352,0.058-8.69-0.013-13.02,0.114c-0.081,2.037-0.126,4.087-0.16,6.137c4.028,0.24,8.161-0.368,12.145,0.46
			c0.184,0.495,0.552,1.474,0.725,1.969c-4.225,0.552-8.507,0.368-12.754,0.472c-0.081,2.371-0.114,4.731-0.114,7.114
			c4.547,0.149,9.104,0.08,13.663,0.104c0.081,0.656,0.255,1.97,0.335,2.624c-6.044,0.162-12.087,0.104-18.131,0.06
			C453.403,364.241,453.38,356.978,453.403,349.714z"/>
		<g>
			<path fill="#FFFFFF" d="M647.992,349.852c1.772-0.104,3.568-0.194,5.365-0.299c3.684,7.298,7.667,14.459,10.912,21.964
				c-1.61-0.012-3.211-0.021-4.812-0.058c-1.22-2.279-2.429-4.559-3.649-6.826c-3.477,0-6.952,0.012-10.417,0.104
				c-1.196,2.291-2.405,4.569-3.614,6.85c-1.531-0.046-3.052-0.115-4.569-0.173C640.476,364.068,644.412,357.047,647.992,349.852z
				 M646.404,362.123c2.797,0.081,5.594,0.093,8.402,0.023c-1.255-2.799-2.612-5.55-4.018-8.267
				C649.12,356.506,647.693,359.28,646.404,362.123z"/>
		</g>
		<path fill="#FFFFFF" d="M879.983,349.68c1.564,0.068,3.131,0.139,4.708,0.195c1.888,5.525,3.765,11.051,5.824,16.52
			c2.349-5.283,4.029-10.844,6.517-16.059c1.323-1.14,3.28-0.449,4.893-0.726c1.91,5.595,3.972,11.144,5.882,16.736
			c2.199-5.41,4.283-10.865,6.32-16.334c1.658-0.139,3.339-0.275,5.021-0.415c-2.901,7.367-6.067,14.619-9.188,21.896
			c-1.531,0.011-3.05,0.021-4.547,0.034c-2.188-5.354-3.868-10.901-6.193-16.196c-2.325,5.398-4.432,10.878-6.677,16.3
			c-1.6-0.196-3.314,0.104-4.766-0.645C884.957,363.977,882.079,356.955,879.983,349.68z"/>
	</g>
	<g>
		<path fill="#FFFFFF" d="M184.667,349.668c7.955-0.035,15.921-0.046,23.875,0.012c-0.011,0.702-0.035,2.106-0.046,2.81
			c-3.177,0.012-6.354,0.021-9.531,0.058c-0.092,6.319-0.011,12.651-0.104,18.994c-1.45-0.023-2.889-0.035-4.328-0.046
			c0.034-6.332,0.104-12.675-0.104-19.006c-3.258,0.012-6.527,0.012-9.785,0.012C184.656,351.798,184.667,350.37,184.667,349.668z"
			/>
		<path fill="#FFFFFF" d="M234.167,349.668c7.966-0.035,15.932-0.046,23.91,0.012c-0.012,0.702-0.035,2.106-0.046,2.81
			c-3.2,0.012-6.389,0.021-9.566,0.058c-0.092,6.331-0.011,12.651-0.104,18.982c-1.451-0.013-2.89-0.023-4.329-0.034
			c0.035-6.332,0.104-12.675-0.103-19.006c-3.258,0.012-6.527,0.012-9.785,0.012C234.155,351.798,234.155,350.37,234.167,349.668z"
			/>
		<path fill="#FFFFFF" d="M499.679,349.817c1.704-0.093,3.431-0.161,5.157-0.207c2.417,3.212,4.846,6.424,7.264,9.646
			c2.751-3.085,5.261-6.377,7.793-9.635c1.728,0.046,3.465,0.104,5.203,0.184c-2.751,3.568-5.756,6.919-8.749,10.28
			c-3.223,2.9-1.588,7.598-2.038,11.396c-1.496,0.022-2.992,0.047-4.488,0.081c-0.058-2.959,0.184-5.939-0.266-8.876
			C506.666,358.106,502.58,354.41,499.679,349.817z"/>
		<path fill="#FFFFFF" d="M780.41,349.702c1.473-0.011,2.958-0.022,4.466-0.011c0.058,6.331,0.058,12.674,0.012,19.017
			c4.374,0.127,8.761,0.092,13.157,0.104c0.035,0.655,0.115,1.969,0.161,2.623c-5.928,0.186-11.868,0.14-17.796,0.06
			C780.444,364.23,780.444,356.966,780.41,349.702z"/>
	</g>
	<g>
		<g>
			<path fill="#FFFFFF" d="M345.217,349.875c6.032-0.195,12.951-1.508,18.211,2.164c3.431,2.925,0.587,7.103-2.268,9.117
				c2.268,3.12,3.58,6.779,4.858,10.395c-1.6-0.034-3.177-0.067-4.766-0.103c-1.128-2.648-1.899-5.491-3.58-7.84
				c-2.395-1.692-5.503-1.128-8.243-1.348c-0.08,3.085-0.115,6.183-0.172,9.289c-1.359-0.021-2.717-0.034-4.075-0.046
				C345.195,364.299,345.149,357.081,345.217,349.875z M349.351,352.305c0.023,2.51,0.069,5.041,0.207,7.563
				c3.73,0.068,11.696,0.194,10.58-5.318C357.362,351.578,352.977,352.351,349.351,352.305z"/>
		</g>
		<path fill="#FFFFFF" d="M397.019,349.587c1.865,0.254,4.226-0.46,5.676,1.117c4.708,4.962,9.348,10.003,14.079,14.953
			c0.046-5.261,0.012-10.521-0.034-15.782c1.438-0.114,2.9-0.219,4.362-0.299c0.081,7.31,0.081,14.631,0,21.939
			c-1.565,0-3.118,0-4.661,0.013c-5.262-5.41-10.073-11.247-15.553-16.415c-0.058,5.468,0.392,10.936,0.241,16.427
			c-1.381-0.012-2.762-0.023-4.132-0.023C396.985,364.207,396.951,356.897,397.019,349.587z"/>
		<path fill="#FFFFFF" d="M555.866,351.349c4.766-2.832,10.706-2.198,15.829-0.771c-1.117,3.765-5.238,1.335-7.989,1.681
			c-2.222-0.253-6.435,1.151-5.272,3.994c3.973,3.396,10.487,2.43,13.711,6.873c0.666,2.509,0.253,5.525-2.293,6.804
			c-5.422,2.729-12.559,2.878-17.738-0.483c3.937-2.797,8.853,1.104,13.088-0.989c1.715-0.483,2.302-2.313,3.247-3.615
			c-3.65-2.763-8.313-3.269-12.294-5.307C552.873,358.175,552.631,352.856,555.866,351.349z"/>
	</g>
	<g>
		<path fill="#FFFFFF" d="M689.872,349.737c8.208-0.023,16.45-0.449,24.634,0.288c-1.023,4.374-6.884,1.817-10.142,2.544
			c-0.058,6.331-0.012,12.662-0.069,18.993c-1.473-0.022-2.936-0.047-4.386-0.08c0.068-6.31,0.035-12.617,0.012-18.926
			c-3.107-0.047-6.216-0.058-9.313,0.013C690.424,351.866,690.055,350.45,689.872,349.737z"/>
	</g>
</g>
<g id="Layer_2" display="none">
	<g display="inline">
		<path fill="#FFFFFF" d="M807.593,292.589c0.099-10.948-0.055-21.896,0.087-32.843c6.418,0.098,13.709-0.819,19.113,3.471
			c4.813,3.514,5.927,9.911,5.632,15.499c-0.416,1.441-0.753,2.914-1.059,4.377c-1.211,2.642-2.794,5.239-5.359,6.757
			C820.604,293.539,813.76,292.589,807.593,292.589z"/>
		<path fill="#FFFFFF" d="M183.612,266.164c6.636-0.458,13.764-0.535,19.756,2.771c13.032,7.236,12.901,29.461-0.448,36.271
			c-5.883,3.198-12.749,2.75-19.21,2.631C183.612,293.943,183.819,280.048,183.612,266.164z"/>
		<path fill="#FFFFFF" d="M944.872,265.913c4.966,0.175,10.313-0.535,14.866,1.933c8.798,4.551,9.146,19.188,0.601,24.176
			c-4.649,2.664-10.217,2.358-15.391,2.336C944.806,284.873,944.948,275.398,944.872,265.913z"/>
		<path fill="#FFFFFF" d="M90.954,271.698c3.667,9.092,7.062,18.315,10.937,27.331c-7.215,0.404-14.441,0.142-21.666,0.152
			C83.804,290.023,87.701,280.977,90.954,271.698z"/>
		<path fill="#FFFFFF" d="M742.703,303.811c-2.336-6.188,3.273-10.927,7.881-13.896c3.405,2.979,5.785,6.897,8.95,10.118
			c1.015,1.31,2.74,2.456,2.554,4.333C757.591,310.13,745.824,311.582,742.703,303.811z"/>
		<path fill="#FFFFFF" d="M300.108,338.324c5.795-3.111,15.029,1.845,13.25,8.95c-1.845,7.738-13.83,8.655-17.628,1.965
			C293.046,345.244,295.84,339.764,300.108,338.324z"/>
		<path fill="#FFFFFF" d="M351.943,337.974c2.98-0.72,6.058-0.283,8.983,0.524c1.517,2.227,0.818,4.432-1.321,5.873
			c-2.5,0.557-5.075,0.491-7.619,0.502l0.076-1.015C352.238,341.893,352.195,339.917,351.943,337.974z"/>
		<path fill="#FFFFFF" d="M153.191,347.143c1.255-2.738,2.587-5.445,3.842-8.186c1.081,2.696,2.336,5.327,3.635,7.935
			c-2.183,0.065-4.355,0.153-6.538,0.22L153.191,347.143z"/>
	</g>
	<g display="inline">
		<path fill="#5387B7" d="M279.635,31.443c8.649,0.045,17.286-0.011,25.934,0.012c1.604-0.271,2.8,0.994,3.997,1.818
			c23.632,20.402,47.252,40.816,70.895,61.196c5.668,5.193,12.024,9.754,17.105,15.525c0.305,9.461,0.191,18.968,0.011,28.441
			c-29.909,25.122-59.671,50.436-89.524,75.637c-2.924,2.234-5.419,5.047-8.57,6.966c-10.568,0.282-21.159,0.147-31.727,0.034
			c38.253-32.856,76.969-65.182,115.414-97.813c-31.535-28.239-63.613-55.878-95.475-83.755
			C284.886,36.953,281.521,34.831,279.635,31.443z"/>
		<path fill="#5387B7" d="M436.837,101.864c0.158-23.474-0.327-46.981,0.237-70.455c8.886,0.113,17.771,0.011,26.646,0.068
			c0.181,25.381,0.215,50.796,0,76.178c-4.2,5.137-10.049,8.863-14.87,13.459c-4.042,3.443-7.295,7.711-11.416,11.065
			C436.363,122.108,437.006,111.97,436.837,101.864z"/>
		<path fill="#5387B7" d="M435.696,163.851c9.394-7.418,18.393-15.401,28.113-22.39c-0.09,26.59,0.339,53.214-0.226,79.792
			c-8.909-0.192-17.817-0.011-26.726-0.103c-0.057-16.032-0.034-32.064-0.012-48.099
			C436.78,169.959,437.345,166.651,435.696,163.851z"/>
	</g>
	<g display="inline">
		<path fill="#005DAA" d="M399.719,40.67c0.076-3.449-0.403-6.997,0.731-10.326c8.405,0.251,16.809,0.065,25.225,0.109
			c0.36,28.128,0.043,56.278,0.164,84.417c0.187,11.341-1.659,22.561-3.317,33.727c8.896-10.751,17.136-22.267,28.051-31.14
			c5.622-4.956,11.438-9.692,16.939-14.779c15.249-13.545,30.878-26.666,46.226-40.102c12.585-10.631,24.82-21.688,37.537-32.156
			c8.885,0.099,17.759,0.011,26.644,0.044c-0.731,1.517-1.965,2.674-3.209,3.766c-32.363,28.281-64.89,56.366-96.958,84.974
			c34.327,28.914,68.546,57.948,102.819,86.905c2.849,2.598,6.134,4.703,8.601,7.705c-10.271,0.043-20.542,0.088-30.802-0.021
			c-32.353-27.517-64.825-54.892-97.275-82.288c-11.45,9.212-22.855,18.479-34.285,27.713c-1.604,1.048-0.774,3.22-1.004,4.781
			c0.033,16.624,0.056,33.236-0.011,49.849c-8.71-0.108-17.42,0.252-26.108-0.195C399.784,155.987,399.697,98.334,399.719,40.67z"/>
		<path fill="#002443" d="M20.53,253.874c2.183,0.01,4.366,0.021,6.549,0.021c-0.044,11.461-0.055,22.912-0.011,34.373
			c2.882-5.764,7.291-10.512,11.079-15.652c4.705-6.299,9.693-12.367,14.364-18.688c2.663-0.044,5.327-0.044,8.001,0.043
			c-7.16,9.092-14.124,18.35-21.121,27.572c-1.277,1.016,0.273,2.259,0.829,3.132c7.564,9.54,15.26,18.981,22.627,28.674
			c-2.816,0.012-5.676,0.316-8.459-0.174c-6.866-8.088-13-16.81-19.997-24.776c-3.209,1.506-4.879,5.305-7.368,7.836
			c0.033,5.73,0.044,11.461-0.011,17.191c-2.139-0.021-4.29-0.033-6.429-0.064C20.519,293.527,20.628,273.707,20.53,253.874z"/>
		<path fill="#002443" d="M391.674,253.884c2.183,0.011,4.366,0.011,6.561,0.011c-0.012,11.275-0.087,22.551,0.032,33.826
			c7.782-11.755,17.038-22.474,25.433-33.793c2.651-0.044,5.314-0.033,7.979,0.055c-6.876,8.635-13.402,17.531-20.171,26.229
			c-0.566,0.96-2.161,2.194-0.993,3.329c7.925,9.878,15.695,19.877,23.664,29.722c-2.881,0.056-5.839,0.502-8.667-0.142
			c-6.625-7.936-12.803-16.264-19.385-24.243c-0.372-0.087-1.125-0.239-1.495-0.315c-2.402,3.361-7.095,6.102-6.451,10.763
			c0.043,4.692,0.056,9.397,0,14.112c-2.149-0.031-4.311-0.054-6.451-0.098C391.696,293.518,391.784,273.707,391.674,253.884z"/>
		<g>
			<path fill="#002443" d="M801.098,253.939c9.999,0.437,21.165-1.977,29.962,4.093c8.524,6.003,9.79,17.987,6.865,27.298
				c-2.128,5.479-6.592,9.922-12.235,11.68c-5.808,2.106-12.039,1.582-18.087,1.67c0.022,4.9,0.022,9.813,0.012,14.713
				c-2.162,0-4.322,0-6.462,0C801.066,293.572,801.174,273.75,801.098,253.939z M807.593,292.589c6.167,0,13.011,0.95,18.414-2.739
				c2.565-1.518,4.148-4.115,5.359-6.757c0.306-1.463,0.644-2.936,1.059-4.377c0.294-5.588-0.818-11.985-5.632-15.499
				c-5.403-4.29-12.694-3.373-19.113-3.471C807.538,270.693,807.691,281.643,807.593,292.589z"/>
		</g>
		<g>
			<path fill="#002443" d="M89,263.512c0.633-1.43,0.666-4.005,2.892-3.166c7.335,17.694,14.899,35.311,22.092,53.069
				c-2.15-0.01-4.311-0.043-6.462-0.109c-1.07-2.881-2.249-5.729-3.318-8.612c-8.023-0.086-16.045,0.022-24.068-0.064
				c-1.746-0.535-2.685,1.113-3.111,2.466c-0.841,2.063-1.572,4.17-2.336,6.276c-2.009,0.021-4.017,0.021-6.025,0.021
				c2.205-6.003,4.694-11.908,7.237-17.77C80.617,285.08,85.114,274.383,89,263.512z M90.954,271.698
				c-3.253,9.278-7.149,18.325-10.73,27.483c7.226-0.011,14.452,0.252,21.666-0.152C98.016,290.014,94.621,280.791,90.954,271.698z"
				/>
		</g>
		<path fill="#002443" d="M123.197,259.779c3.329,1.059,4.705,4.639,7.106,6.897c9.245,11.482,19.331,22.31,28.238,34.056
			c0.033-13.371,0.033-26.742,0-40.113c1.844,0.021,3.689,0.043,5.534,0.099c-0.055,14.691-0.011,29.394-0.022,44.087
			c-0.054,3.24,0.327,6.548-0.557,9.725c-11.777-13.611-23.445-27.332-34.841-41.26c0.317,13.371,0.098,26.742,0.12,40.113
			c-1.877,0.011-3.744,0.011-5.611,0.022C123.197,295.525,123.131,277.658,123.197,259.779z"/>
		<path fill="#002443" d="M230.088,260.63c10.74,0.011,21.492,0,32.243,0c-0.043,1.769-0.087,3.536-0.12,5.315
			c-8.677-0.088-17.355,0.033-26.032-0.065c-0.175,8.077-0.109,16.154-0.033,24.242c7.815,0.153,15.62-0.054,23.435,0.108
			c0,1.713,0.011,3.428,0.011,5.142c-7.87,0.054-15.74-0.241-23.609,0.153c0.153,4.113,0.087,8.229,0.142,12.344
			c9.07,0.131,18.152-0.011,27.222,0.077c0.022,1.812,0.033,3.635,0.044,5.458c-11.079-0.012-22.158,0.064-33.237-0.044
			C230.088,295.777,230.208,278.204,230.088,260.63z"/>
		<g>
			<path fill="#002443" d="M460.287,260.576c0.437-0.121,1.332-0.35,1.768-0.469c6.964,17.912,14.942,35.43,21.973,53.319
				c-2.172-0.011-4.333-0.055-6.495-0.152c-1.026-2.894-2.194-5.73-3.274-8.602c-8.021-0.032-16.045,0.033-24.057-0.043
				c-1.791-0.535-2.686,1.224-3.133,2.565c-0.842,2.041-1.562,4.114-2.314,6.188c-2.019,0-4.049-0.011-6.058-0.033
				C445.791,295.723,453.039,278.139,460.287,260.576z M460.919,271.818c-3.132,9.267-7.062,18.238-10.642,27.332
				c7.226,0.011,14.474,0.338,21.678-0.176C467.992,290.046,464.871,280.734,460.919,271.818z"/>
		</g>
		<path fill="#002443" d="M493.217,263.314c0.022-1.407,0.164-2.805,0.403-4.181c8.045,8.427,15.052,17.813,22.736,26.589
			c4.049,4.967,8.578,9.584,12.159,14.922c0.153-13.328,0.055-26.666,0.055-39.994c1.834,0,3.668,0,5.512,0.022
			c-0.077,17.879,0.196,35.757-0.12,53.637c-1.79-1.244-3.264-2.859-4.618-4.529c-10.14-12.226-20.64-24.134-30.615-36.479
			c0.283,13.349,0.087,26.72,0.108,40.081c-1.877,0.011-3.754-0.011-5.632,0C493.261,296.693,493.228,280.004,493.217,263.314z"/>
		<path fill="#002443" d="M600.152,260.63c10.729,0,21.47,0.011,32.199,0c-0.055,1.769-0.098,3.547-0.152,5.337
			c-8.71-0.021-17.432-0.186-26.131,0.088c0.108,7.979,0.032,15.969,0.043,23.957c7.826,0.371,15.652,0.012,23.488,0.219
			c0,1.703,0,3.418,0.022,5.142c-7.87,0.087-15.75-0.284-23.599,0.196c0.143,4.093,0.032,8.197,0.208,12.301
			c9.038,0.121,18.086,0.011,27.135,0.065c0.011,1.823,0.032,3.646,0.054,5.47c-11.079-0.022-22.146,0.087-33.214-0.066
			C600.163,295.766,600.271,278.204,600.152,260.63z"/>
		<path fill="#002443" d="M851.286,260.652c10.872,0.021,21.754-0.131,32.625,0.076c-0.066,1.791-0.351,3.568-0.775,5.315
			c-8.523-0.284-17.049-0.054-25.563-0.131c0.055,8.099-0.13,16.209,0.108,24.308c7.686-0.064,15.369-0.087,23.064,0
			c-0.011,1.715-0.011,3.428,0.011,5.152c-7.739-0.044-15.456-0.021-23.184-0.021c-0.011,4.19-0.011,8.371,0.011,12.563
			c9.114,0.36,18.349-0.698,27.396,0.567c-0.076,1.604-0.119,3.209-0.142,4.813c-11.188,0.131-22.409,0.316-33.597-0.098
			C851.417,295.689,851.329,278.17,851.286,260.652z"/>
		<path fill="#002443" d="M891.649,260.663c12.684-0.011,25.377-0.099,38.071,0.044c-0.021,1.725-0.033,3.471-0.021,5.207
			c-5.414,0.011-10.816-0.021-16.22,0.033c0.021,15.826,0.055,31.654-0.012,47.479c-1.898-0.021-3.776-0.033-5.644-0.055
			c-0.065-15.794-0.021-31.577-0.021-47.36c-5.338-0.186-10.675-0.043-16.013-0.131
			C891.737,264.134,891.682,262.398,891.649,260.663z"/>
		<g>
			<path fill="#002443" d="M938.606,260.652c8.722,0.382,18.326-1.637,26.131,3.361c7.892,4.868,9.311,15.62,6.593,23.795
				c-1.419,4.486-5.316,7.379-9.158,9.715c3.864,5.195,7.401,10.631,11.374,15.75c-2.761-0.35-6.865,1.495-8.59-1.475
				c-2.63-4.082-5.763-7.814-8.154-12.05c-3.951-0.556-7.945-0.099-11.908-0.196c0,4.574-0.032,9.137,0.033,13.709
				c-2.105,0.087-4.213,0.12-6.287,0.131C938.65,295.811,938.704,278.236,938.606,260.652z M944.872,265.913
				c0.076,9.485-0.065,18.959,0.076,28.444c5.173,0.021,10.739,0.328,15.391-2.336c8.546-4.988,8.197-19.625-0.601-24.178
				C955.186,265.378,949.838,266.088,944.872,265.913z"/>
		</g>
		<path fill="#002443" d="M984.668,260.686c2.052-0.022,4.115-0.045,6.188-0.055c-0.033,17.596-0.012,35.189-0.021,52.785
			c-2.063-0.032-4.104-0.065-6.145-0.131C984.69,295.755,984.744,278.214,984.668,260.686z"/>
		<path fill="#002443" d="M1005.188,260.652c10.883,0.021,21.766-0.153,32.647,0.098c-0.099,1.779-0.371,3.547-0.797,5.294
			c-8.524-0.284-17.049-0.054-25.563-0.131c0.044,8.088-0.107,16.187,0.088,24.286c7.695-0.032,15.38-0.065,23.074,0.021
			c0,1.715,0,3.428,0.022,5.152c-7.739-0.044-15.466-0.021-23.185-0.021c-0.011,4.19-0.011,8.371,0.012,12.563
			c9.113,0.372,18.358-0.72,27.396,0.589c-0.077,1.594-0.12,3.198-0.142,4.803c-11.167,0.196-22.332,0.143-33.499,0.021
			C1005.199,295.766,1005.297,278.214,1005.188,260.652z"/>
		<g>
			<path fill="#002443" d="M177.696,260.63c9.518,0.315,19.658-1.364,28.466,3.208c17.115,8.252,17.584,36.631,1.026,45.712
				c-8.929,5.108-19.571,3.679-29.405,3.842C177.663,295.799,177.837,278.214,177.696,260.63z M183.612,266.164
				c0.207,13.884,0,27.779,0.098,41.674c6.462,0.12,13.327,0.567,19.21-2.631c13.349-6.811,13.48-29.034,0.448-36.271
				C197.375,265.629,190.248,265.706,183.612,266.164z"/>
		</g>
		<path fill="#002443" d="M274.883,260.619c1.987,0.021,3.973,0.021,5.971,0.064c0.076,15.729-0.153,31.469,0.12,47.197
			c8.241,0.087,16.492,0.022,24.734,0.044c-0.055,1.823-0.099,3.657-0.164,5.49c-10.195-0.021-20.379,0.033-30.573-0.032
			C274.84,295.799,275.025,278.204,274.883,260.619z"/>
		<path fill="#002443" d="M315.269,260.619c1.987,0.021,3.984,0.021,5.971,0.064c0.032,7.805-0.077,15.609,0.065,23.414
			c-0.077,7.935-0.175,15.858,0.054,23.783c8.241,0.087,16.493,0.022,24.745,0.044c-0.054,1.823-0.109,3.657-0.174,5.49
			c-10.195-0.032-20.39,0.055-30.584-0.054C315.258,295.777,315.389,278.204,315.269,260.619z"/>
		<g>
			<path fill="#002443" d="M547.76,260.641c8.11,0.338,16.493-1.037,24.363,1.551c6.221,1.834,11.842,6.188,14.495,12.203
				c4.41,9.649,3.58,22.017-3.308,30.322c-3.241,3.492-7.455,6.146-12.094,7.313c-7.619,2.129-15.598,1.223-23.391,1.332
				C547.76,295.788,547.88,278.214,547.76,260.641z M553.688,266.066c0.032,1.625,0.065,3.264,0.108,4.9
				c-0.087,12.29-0.153,24.592,0.033,36.894c6.407,0.077,13.207,0.534,19.058-2.599c13.458-6.746,13.611-29.132,0.524-36.357
				C567.407,265.585,560.313,265.836,553.688,266.066z"/>
		</g>
		<path fill="#002443" d="M644.904,260.607c1.986,0.033,3.983,0.043,5.98,0.088c0.065,15.717-0.098,31.435,0.043,47.142
			c8.264,0.175,16.536,0.043,24.811,0.087c-0.066,1.823-0.12,3.657-0.187,5.49c-10.184-0.01-20.355,0-30.541-0.01
			C644.838,295.811,645.057,278.214,644.904,260.607z"/>
		<path fill="#002443" d="M685.29,260.619c1.976,0.021,3.973,0.021,5.971,0.064c0.065,15.729-0.131,31.459,0.099,47.187
			c8.251,0.108,16.503,0.021,24.755,0.055c-0.056,1.823-0.1,3.657-0.164,5.49c-10.195-0.032-20.39,0.055-30.583-0.043
			C685.279,295.788,685.41,278.204,685.29,260.619z"/>
		<g>
			<path fill="#002443" d="M745.224,271.316c2.642-4.781,9.093-5.164,13.731-3.582c4.398,2.097,5.949,7.533,4.574,11.975
				c-1.475,3.471-4.628,5.752-7.554,7.914c2.631,3.559,5.851,6.658,8.416,10.282c0.36,0.022,1.092,0.065,1.452,0.087
				c0.327-1.408,0.698-2.794,1.113-4.169c0.087-1.824,0.131-3.646,0.164-5.458c1.604-0.055,3.22-0.109,4.846-0.143
				c0.48,5.359-1.255,10.402-2.718,15.435c2.576,3.273,5.327,6.418,7.924,9.691c-2.052,0.022-4.083,0.153-6.112-0.031
				c-2.041-0.939-3.077-3.145-4.278-4.901c-2.281-0.098-3.569,2.096-5.425,3.035c-5.785,3.133-13.24,3.395-19.091,0.295
				c-5.358-3.22-6.768-10.588-4.398-16.078c1.976-4.333,6.32-6.768,10.162-9.234C744.58,282.329,742.691,276.348,745.224,271.316z
				 M750.212,273.128c-2.739,3.722,0.022,8.394,3.079,10.927c2.586-2.216,6.342-4.617,5.566-8.591
				C758.508,271.327,752.646,269.811,750.212,273.128z M742.703,303.811c3.122,7.771,14.888,6.319,19.385,0.557
				c0.187-1.877-1.539-3.023-2.554-4.333c-3.166-3.22-5.545-7.14-8.95-10.118C745.977,292.884,740.367,297.622,742.703,303.811z"/>
		</g>
		<path fill="#002443" d="M353.396,306.232c2.259-3.896,9.878-2.084,8.896,2.871c-0.688,5.087-4.29,9.213-6.069,13.961
			c-1.332-0.056-2.652-0.121-3.962-0.176c1.08-3.078,2.227-6.123,3.067-9.277C352.937,312.051,351.518,308.754,353.396,306.232z"/>
		<g>
			<path fill="#002443" d="M153.956,336.872c0.764-2.642,3.907-1.288,5.861-1.67c3.417,6.953,7.138,13.764,10.413,20.793
				c-1.659-0.043-3.307-0.087-4.956-0.143l-0.491-1.211c-0.033-0.065-0.077-0.195-0.109-0.251l-0.786-1.877l-0.087-0.208
				l-0.12-0.186c-0.404-0.666-1.201-1.998-1.604-2.664c-3.231,0.087-6.505-0.316-9.693,0.197c-1.648,1.725-2.314,4.234-3.427,6.342
				c-1.506-0.033-3.013-0.065-4.508-0.109c1.113-2.696,2.434-5.294,3.831-7.848c0.033-0.077,0.109-0.219,0.153-0.295l0.993-1.91
				c0.033-0.077,0.12-0.24,0.164-0.316l0.949-1.888c0.033-0.066,0.109-0.208,0.142-0.273l0.949-1.888
				c0.033-0.065,0.109-0.208,0.142-0.272l0.949-1.91c0.044-0.065,0.109-0.208,0.142-0.273l0.949-1.888
				C153.846,337.058,153.923,336.926,153.956,336.872z M153.191,347.143l0.939-0.031c2.38,0.12,4.77,0.218,7.149,0.294
				c-0.742-3.111-2.161-6.025-4.246-8.448C155.778,341.696,154.447,344.403,153.191,347.143z"/>
		</g>
		<g>
			<path fill="#002443" d="M297.86,335.988c5.185-1.626,11.308-1.475,16.044,1.386c5.436,3.307,5.578,12.29,0.448,15.947
				c-5.61,3.832-13.425,3.95-19.363,0.797c-4.77-2.489-6.232-9.212-3.351-13.633C292.992,338.182,295.458,336.904,297.86,335.988z
				 M300.108,338.324c-4.268,1.439-7.063,6.92-4.377,10.915c3.798,6.69,15.783,5.773,17.628-1.965
				C315.138,340.168,305.904,335.213,300.108,338.324z"/>
		</g>
		<g>
			<path fill="#002443" d="M348.866,335.125c5.064,0.065,10.194-0.306,15.117,1.245c0.863,1.396,2.413,2.652,2.238,4.464
				c0.469,2.772-2.467,3.842-4.203,5.261c0.928,0.929,1.867,1.856,2.772,2.838c1.255,2.205,1.856,4.728,2.947,7.029
				c-1.506,0-3.001,0.011-4.486,0.022l-0.098-0.339c-1.091-2.936-1.179-7.269-4.835-8.187c-2.096-0.152-4.453-0.731-6.396,0.295
				c-0.262,2.729-0.12,5.479-0.131,8.219c-0.786,0-2.357-0.011-3.132-0.021C348.844,349.01,348.756,342.067,348.866,335.125z
				 M352.063,343.857l-0.076,1.015c2.543-0.011,5.119,0.055,7.619-0.502c1.964-0.448,3.274-1.779,3.995-3.635
				c-0.896-0.753-1.79-1.496-2.674-2.238c-2.925-0.808-6.003-1.244-8.983-0.524C350.077,338.629,349.99,343.432,352.063,343.857z"/>
		</g>
		<path fill="#002443" d="M396.946,335.027c2.042,0.326,4.649-0.328,5.98,1.713c4.182,4.879,9.005,9.168,12.923,14.288
			c-0.108-5.293-0.229-10.599-0.021-15.893c1.016,0.043,3.035,0.12,4.039,0.153c0,6.887-0.011,13.775,0.011,20.663
			c-1.529,0-3.045-0.011-4.552-0.011c-4.781-5.458-9.987-10.533-14.659-16.078c-0.12,5.348,0.458,10.696,0.24,16.056
			c-1.31,0.055-2.619,0.131-3.93,0.24C397.022,349.107,397.099,342.067,396.946,335.027z"/>
		<path fill="#002443" d="M494.614,335.322c1.527-0.056,3.066-0.087,4.605-0.109c2.193,2.772,4.191,5.697,6.386,8.47
			c0.283,0.065,0.861,0.187,1.146,0.24c2.237-2.532,3.94-5.49,6.265-7.946c1.495-1.407,3.843-0.437,5.665-0.73
			c-2.063,2.456-4.093,4.934-6.255,7.302c-1.495,1.562-2.99,3.133-4.453,4.738c-0.011,2.979-0.032,5.959,0.108,8.95
			c-0.796-0.087-2.401-0.251-3.197-0.338c-0.175-3.066,0.808-6.637-1.376-9.19C500.454,342.984,496.819,339.655,494.614,335.322z"/>
		<g>
			<path fill="#002443" d="M634.229,336.719c1.277-2.149,3.854-1.319,5.916-1.517c3.461,6.877,6.921,13.764,10.5,20.597
				c-1.714,0.076-3.416,0.099-5.098,0.055l-0.479-1.276c-0.022-0.065-0.076-0.196-0.109-0.262l-0.906-1.922
				c-0.033-0.065-0.099-0.208-0.143-0.272c-0.382-0.676-1.146-2.03-1.539-2.707c-3.231,0.197-6.571-0.393-9.736,0.338
				c-1.626,1.714-2.27,4.159-3.362,6.244c-1.518-0.033-3.022-0.077-4.529-0.121c0.513-1.156,1.069-2.303,1.637-3.438l0.098-0.187
				l0.076-0.175l0.982-2.041c0.033-0.055,0.099-0.187,0.131-0.251c0.655-1.311,1.332-2.609,2.019-3.897
				c0.033-0.065,0.099-0.195,0.132-0.251c0.677-1.354,1.363-2.685,2.063-4.027c0.033-0.076,0.12-0.229,0.152-0.306
				c0.71-1.354,1.375-2.718,1.998-4.104C634.076,337.079,634.185,336.839,634.229,336.719z M633.53,347.143l0.917-0.031
				c2.38,0.12,4.77,0.218,7.172,0.305c-0.853-2.969-1.867-6.046-4.225-8.165C635.997,341.828,634.698,344.458,633.53,347.143z"/>
		</g>
		<path fill="#002443" d="M761.433,335.125c0.852,0.131,2.565,0.393,3.428,0.524c-0.108,5.938-0.108,11.864,0,17.802
			c4.114-0.065,8.229-0.055,12.355-0.033c0.043,0.623,0.12,1.867,0.164,2.489c-5.327,0.142-10.653,0.054-15.969,0.064
			C761.455,349.031,761.422,342.079,761.433,335.125z"/>
		<g>
			<path fill="#002443" d="M813.891,335.093c1.354,0.065,2.729,0.099,4.114,0.099c1.104,2.903,2.631,5.609,4.269,8.24
				c0.774,1.343,1.495,2.74,2.149,4.159c1.146,2.762,2.303,5.556,4.049,8.011c-0.96,0.165-2.892,0.503-3.853,0.667
				c-1.092-2.456-1.932-5.282-4.235-6.888c-3.395-0.055-6.789-0.011-10.129,0.524c-0.262,0.426-0.786,1.276-1.047,1.703
				c-0.972,1.342-1.834,2.761-2.511,4.277c-0.633-0.142-1.898-0.403-2.532-0.545c0.229-1.026,0.677-3.078,0.896-4.104
				c0.271-0.775,0.654-1.484,1.168-2.14C809.525,344.873,811.521,339.862,813.891,335.093z M814.688,338.924l0.371,0.699
				c-1.474,2.466-2.794,5.032-3.798,7.728l0.731-0.175c2.543,0.197,5.107,0.24,7.674,0.251
				C818.628,344.371,817.798,340.518,814.688,338.924z"/>
		</g>
		<path fill="#002443" d="M855.139,335.158c1.495,0.131,3.013,0.272,4.54,0.448c1.288,5.381,3.657,10.424,5.13,15.751
			c2.401-5.175,4.213-10.61,6.31-15.927c1.626-0.107,3.264-0.098,4.912,0.066c1.288,5.261,3.775,10.129,5.063,15.401
			c2.729-4.835,4.191-10.293,6.298-15.424c1.519-0.108,3.057-0.208,4.617-0.295c-2.467,7.052-5.949,13.709-8.416,20.762
			c-1.615-0.033-3.209-0.056-4.792-0.109c-1.527-5.196-3.886-10.107-5.195-15.369c-2.706,4.835-4.605,10.129-6.407,15.369
			c-1.615,0.043-3.221,0.087-4.813,0.109C860.181,348.944,856.59,342.362,855.139,335.158z"/>
	</g>
	<g display="inline">
		<g>
			<path fill="#054375" d="M607.26,32.065c28.882,0.022,57.775-0.317,86.657,0.384c4.155,0.44,8.265,1.265,12.454,1.434
				c2.855,0.959,5.962,0.598,8.841,1.513c3.41,0.598,6.82,1.287,10.15,2.27c2.337,0.587,4.674,1.23,7.012,1.874
				c1.129,0.372,2.271,0.734,3.421,1.095c1.423,0.486,2.834,1.073,4.269,1.57c1.896,0.711,3.76,1.501,5.622,2.337
				c9.813,4.042,18.709,10.207,26.218,17.692c7.564,6.956,11.854,16.745,14.463,26.522c4.087,16.846,0.204,35.295-10.15,49.16
				c-12.285,14.644-29.92,23.79-48.2,28.577c-30.497,8.513-62.438,6.662-93.748,6.91c-0.102,15.932,0.146,31.863-0.136,47.794
				c-8.953-0.067-17.907,0-26.849-0.034C607.226,158.126,607.271,95.101,607.26,32.065z M634.256,46.72
				c0.034,37.406-0.068,74.813,0.057,112.23c28.576-0.474,57.955,2.055,85.617-6.695c13.595-4.437,27.054-12.544,33.918-25.506
				c6.854-13.458,7.554-29.875,1.977-43.898c-4.279-11.935-14.77-20.527-25.891-25.89c-2.167-0.937-4.313-1.885-6.47-2.811
				c-6.718-2.237-13.56-4.28-20.595-5.206c-4.031-0.982-8.242-0.96-12.317-1.75C671.798,46.517,653.021,46.743,634.256,46.72z"/>
		</g>
	</g>
	<g display="inline">
		<path fill="#FFFFFE" d="M625.061,45.211c18.141,0.021,36.292-0.197,54.423,0.458c3.939,0.764,8.011,0.742,11.907,1.692
			c6.802,0.895,13.415,2.87,19.909,5.032c2.085,0.895,4.159,1.812,6.254,2.717c10.751,5.185,20.893,13.491,25.029,25.028
			c5.392,13.557,4.715,29.427-1.91,42.438c-6.637,12.53-19.646,20.368-32.789,24.657c-26.742,8.459-55.143,6.015-82.769,6.473
			C624.995,117.534,625.093,81.372,625.061,45.211z"/>
		<path fill="#FFFFFE" d="M553.688,266.066c6.625-0.229,13.72-0.48,19.724,2.838c13.087,7.226,12.934,29.611-0.524,36.357
			c-5.851,3.132-12.649,2.674-19.058,2.599c-0.187-12.302-0.12-24.604-0.033-36.894C553.752,269.33,553.719,267.691,553.688,266.066
			z"/>
		<path fill="#FFFFFE" d="M750.212,273.128c2.435-3.317,8.296-1.801,8.646,2.335c0.774,3.973-2.98,6.375-5.566,8.59
			C750.234,281.521,747.473,276.85,750.212,273.128z"/>
		<path fill="#FFFFFE" d="M460.919,271.818c3.951,8.916,7.073,18.229,11.036,27.156c-7.204,0.514-14.452,0.187-21.678,0.176
			C453.857,290.057,457.787,281.084,460.919,271.818z"/>
		<path fill="#FFFFFE" d="M633.53,347.143c1.167-2.685,2.466-5.314,3.864-7.892c1.059,2.577,2.271,5.098,3.536,7.597
			c-2.172,0.087-4.322,0.176-6.483,0.263L633.53,347.143z"/>
	</g>
	<g display="inline">
		<path fill="#F6DEB9" d="M906.45,266.143l1.354-0.132c0,15.783-0.044,31.566,0.021,47.36l-1.211,0.055
			C906.265,297.665,906.57,281.902,906.45,266.143z"/>
	</g>
	<g display="inline">
		<path fill="#714156" d="M347.676,335.912l1.19-0.786c-0.109,6.942-0.022,13.884-0.208,20.826l-1.146,0.087
			C347.621,349.326,347.217,342.591,347.676,335.912z"/>
	</g>
	<g display="inline">
		<path fill="#FFF8D6" d="M395.593,340.78c0.164-1.954-0.372-4.322,1.354-5.752c0.152,7.04,0.075,14.08,0.032,21.131l-1.047-0.633
			C395.233,350.658,395.779,345.691,395.593,340.78z"/>
		<path fill="#FFF8D6" d="M449.087,348.453c0.601-4.366-1.386-9.605,1.299-13.36c0.187,7.019,0.087,14.037,0.066,21.056
			C447.887,354.805,449.59,350.854,449.087,348.453z"/>
	</g>
	<g display="inline">
		<g>
			<path fill="#0B2544" d="M450.386,335.093c5.491,0.294,11.002,0.12,16.504,0.099c0.012,0.895,0.022,1.801,0.043,2.707
				c-4.169,0.031-8.35-0.033-12.52,0.142c-0.011,1.932,0.043,3.875,0.109,5.807c3.831,0.044,7.673,0.065,11.504-0.043
				c0.011,0.905,0.011,1.813,0.032,2.729c-3.634-0.033-7.27,0.011-10.894-0.197c0.109,2.434,0.131,4.879,0.109,7.324
				c3.994-0.448,8.021-0.24,12.04-0.284c0.087,0.644,0.251,1.921,0.338,2.565c-5.742,0.195-11.482-0.132-17.202,0.207
				C450.474,349.129,450.572,342.111,450.386,335.093z M454.283,346.946c-1.125,1.778-1.146,4.563-0.011,6.353
				C455.015,351.345,455.025,348.889,454.283,346.946z"/>
		</g>
	</g>
	<g display="inline">
		<path fill="#022543" d="M547.094,337.232c4.377-3.09,10.185-2.456,15.128-1.344c-0.142,0.634-0.437,1.889-0.579,2.511
			c-3.547-0.371-7.597-1.921-10.772,0.458c-1.562,0.644-1.189,2.783,0.12,3.438c3.493,1.977,7.902,1.921,11.067,4.53
			c1.604,1.244,1.005,3.471,1.332,5.206c-4.453,5.534-13,5.12-18.948,2.543c0.382-0.567,1.146-1.703,1.527-2.271
			c4.062,1.375,9.092,2.468,12.728-0.535c0.077-0.578,0.241-1.734,0.328-2.313c-3.82-3.558-9.89-2.717-13.492-6.69
			C545.708,340.867,545.009,338.313,547.094,337.232z"/>
	</g>
	<g display="inline">
		<path fill="#B28B7E" d="M674.342,335.366l0.251,0.382c0.36,0.523,1.07,1.593,1.431,2.117c2.858-0.032,5.729-0.032,8.61-0.032
			c-0.011,5.959,0.295,11.919-0.087,17.868l-0.623,0.906c-0.371-6.156-0.12-12.334-0.164-18.501
			c-3.034-0.044-6.058-0.021-9.081,0.098C674.593,337.494,674.429,336.075,674.342,335.366z"/>
	</g>
	<g display="inline">
		<path fill="#0B2B47" d="M674.593,335.748c7.434-0.873,15.097-0.753,22.552-0.087c-0.012,0.491-0.012,1.474-0.012,1.965
			c-2.969,0.47-5.959,0.218-8.929,0.48c-2.51,5.577-0.589,12.028-1.135,17.978c-0.622-0.099-1.889-0.284-2.521-0.382
			c0.382-5.949,0.076-11.908,0.087-17.868c-2.881,0-5.752,0-8.61,0.032C675.663,337.341,674.953,336.271,674.593,335.748z"/>
	</g>
	<g display="inline">
		<path fill="#4089C0" d="M697.144,335.66c1.562,0.611,1.562,1.266-0.011,1.965C697.132,337.134,697.132,336.151,697.144,335.66z"/>
	</g>
	<g display="inline">
		<path fill="#845968" d="M760.091,335.245l1.342-0.12c-0.011,6.953,0.022,13.905-0.021,20.848l-1.267,0.076
			C760.014,349.118,760.101,342.176,760.091,335.245z"/>
	</g>
	<g display="inline">
		<path fill="#716262" d="M812.352,336.282c0.383-0.294,1.146-0.896,1.54-1.189c-2.368,4.771-4.365,9.78-7.663,14.004
			C807.68,344.578,810.158,340.474,812.352,336.282z"/>
	</g>
	<g display="inline">
		<path fill="#7FAAC5" d="M818.005,335.191c2.401,2.128,3.624,5.162,4.269,8.24C820.636,340.801,819.108,338.095,818.005,335.191z"
			/>
	</g>
	<g display="inline">
		<path fill="#8BB2CD" d="M363.982,336.37c0.568,0.305,1.703,0.917,2.271,1.222c2.009,3.145,0.284,6.32-2.183,8.559
			c0.185,0.697,0.535,2.084,0.72,2.782c-0.906-0.981-1.844-1.909-2.772-2.838c1.735-1.418,4.672-2.487,4.203-5.261
			C366.396,339.022,364.845,337.767,363.982,336.37z"/>
	</g>
	<g display="inline">
		<path fill="#C19674" d="M634.032,337.199c0.044-0.12,0.152-0.36,0.196-0.48C634.185,336.839,634.076,337.079,634.032,337.199z"/>
	</g>
	<g display="inline">
		<path fill="#004591" d="M352.063,343.857c-2.074-0.427-1.986-5.229-0.12-5.884C352.195,339.917,352.238,341.893,352.063,343.857z"
			/>
	</g>
	<g display="inline">
		<path fill="#725960" d="M360.927,338.498c0.884,0.742,1.779,1.485,2.674,2.238c-0.721,1.854-2.031,3.187-3.995,3.635
			C361.745,342.93,362.444,340.725,360.927,338.498z"/>
	</g>
	<g display="inline">
		<path fill="#022663" d="M687.068,356.083c0.546-5.949-1.375-12.4,1.135-17.978c0.393,5.938,0.099,11.887,0.197,17.835
			L687.068,356.083z"/>
	</g>
	<g display="inline">
		<path fill="#A49592" d="M637.394,339.251c2.358,2.118,3.373,5.196,4.226,8.165c-2.402-0.087-4.792-0.186-7.172-0.305
			c2.161-0.087,4.312-0.176,6.483-0.263C639.665,344.349,638.453,341.828,637.394,339.251z"/>
	</g>
	<g display="inline">
		<path fill="#ADA19E" d="M814.688,338.924c3.11,1.594,3.94,5.447,4.979,8.503c-2.565-0.011-5.13-0.054-7.674-0.251
			c0.251-0.055,0.753-0.152,1.004-0.197c1.965-0.131,3.929-0.218,5.916-0.251c-1.266-2.39-2.576-4.747-3.854-7.104L814.688,338.924z
			"/>
	</g>
	<g display="inline">
		<path fill="#BA8A6C" d="M631.882,341.609c0.033-0.076,0.12-0.229,0.152-0.306C632.002,341.38,631.915,341.533,631.882,341.609z"/>
	</g>
	<g display="inline">
		<path fill="#91B8D2" d="M811.26,347.351c1.004-2.695,2.325-5.262,3.798-7.728c-0.73,2.434-1.386,4.9-2.063,7.355
			c-0.251,0.045-0.753,0.143-1.004,0.197L811.26,347.351z"/>
	</g>
	<g display="inline">
		<path fill="#FAFBF8" d="M815.059,339.623c1.277,2.357,2.588,4.715,3.854,7.104c-1.987,0.033-3.951,0.12-5.916,0.251
			C813.672,344.523,814.327,342.057,815.059,339.623z"/>
	</g>
	<g display="inline">
		<path fill="#A1C6DC" d="M507.975,347.285c1.463-1.605,2.958-3.177,4.453-4.738c-0.851,1.867-2.105,3.482-3.503,4.967
			c-0.327,2.871,0.688,6.112-0.841,8.722C507.941,353.245,507.963,350.265,507.975,347.285z"/>
	</g>
	<g display="inline">
		<path fill="#B28464" d="M629.688,345.888c0.033-0.065,0.099-0.195,0.132-0.251C629.786,345.691,629.721,345.822,629.688,345.888z"
			/>
	</g>
	<g display="inline">
		<path fill="#957B71" d="M358.318,347.459c3.657,0.917,3.744,5.25,4.835,8.188C361.178,353.103,360.697,349.719,358.318,347.459z"
			/>
	</g>
	<g display="inline">
		<path fill="#004895" d="M454.283,346.946c0.742,1.942,0.73,4.398-0.011,6.353C453.137,351.509,453.159,348.726,454.283,346.946z"
			/>
	</g>
	<g display="inline">
		<path fill="#724158" d="M503.51,346.706c2.184,2.555,1.201,6.124,1.376,9.19l-1.289,0.152
			C503.587,352.938,503.576,349.817,503.51,346.706z"/>
	</g>
	<g display="inline">
		<path fill="#A1C5DD" d="M824.424,347.59c2.937,1.91,3.624,5.73,4.846,8.787l-0.797-0.776
			C826.727,353.146,825.57,350.352,824.424,347.59z"/>
	</g>
	<g display="inline">
		<path fill="#A87D64" d="M627.538,350.036c0.033-0.055,0.099-0.187,0.131-0.251C627.636,349.85,627.571,349.98,627.538,350.036z"/>
	</g>
	<g display="inline">
		<path fill="#6F6462" d="M820.385,349.38c2.303,1.604,3.144,4.433,4.235,6.888C822.186,354.783,821.542,351.771,820.385,349.38z"/>
	</g>
	<g display="inline">
		<path fill="#A47659" d="M626.381,352.438c0.044-0.099,0.131-0.273,0.174-0.36l-0.076,0.175L626.381,352.438z"/>
	</g>
	<g display="inline">
		<path fill="#BC8865" d="M643.91,352.12c0.044,0.064,0.108,0.207,0.143,0.272C644.02,352.327,643.954,352.186,643.91,352.12z"/>
	</g>
	<g display="inline">
		<path fill="#585861" d="M802.561,356.017c0.611-1.691,1.376-3.352,2.5-4.78c-0.218,1.025-0.666,3.078-0.895,4.104
			c0.633,0.143,1.898,0.404,2.532,0.545l0.437,0.131C805.595,356.039,804.067,356.049,802.561,356.017z"/>
	</g>
	<g display="inline">
		<path fill="#74A3C7" d="M806.697,355.886c0.677-1.517,1.54-2.936,2.511-4.277c1.091,1.474-0.131,4.452-2.075,4.409
			L806.697,355.886z"/>
	</g>
	<g display="inline">
		<path fill="#C08966" d="M644.958,354.314c0.033,0.065,0.087,0.195,0.109,0.262C645.045,354.51,644.991,354.38,644.958,354.314z"/>
	</g>
</g>
</svg>
