<?xml version="1.0" standalone="no"?>
<!DOCTYPE svg PUBLIC "-//W3C//DTD SVG 20010904//EN"
 "http://www.w3.org/TR/2001/REC-SVG-20010904/DTD/svg10.dtd">
<svg version="1.0" xmlns="http://www.w3.org/2000/svg"
 width="700.000000pt" height="700.000000pt" viewBox="0 0 700.000000 700.000000"
 preserveAspectRatio="xMidYMid meet">
<metadata>
Created by potrace 1.11, written by Peter Selinger 2001-2013
</metadata>
<g transform="translate(0.000000,700.000000) scale(0.100000,-0.100000)"
fill="#000000" stroke="none">
<path d="M3409 6893 c-79 -47 -346 -206 -594 -353 -247 -147 -585 -347 -750
-445 -165 -98 -320 -189 -345 -203 -25 -14 -56 -33 -70 -42 -14 -10 -104 -64
-200 -121 -96 -56 -229 -135 -295 -174 -66 -39 -180 -106 -253 -150 l-133 -79
23 -18 c13 -10 26 -18 30 -18 3 0 43 -22 88 -50 45 -27 83 -50 86 -50 2 0 35
-20 74 -45 39 -25 72 -45 74 -45 2 0 118 -68 258 -151 139 -84 269 -161 288
-171 32 -19 190 -112 302 -179 l47 -28 132 79 c73 44 134 80 136 80 2 0 22 12
46 27 23 15 51 33 62 39 65 37 175 102 460 271 176 105 334 199 352 209 18 11
81 48 140 84 59 36 127 75 149 87 l42 21 113 -68 c381 -226 565 -336 574 -340
11 -5 223 -131 458 -272 82 -48 151 -88 153 -88 3 0 20 -11 38 -25 18 -14 36
-25 39 -25 4 0 36 -18 71 -40 l65 -39 128 76 c208 124 395 234 443 261 25 14
56 33 70 43 22 15 247 149 335 199 42 24 290 171 292 174 2 2 -199 124 -237
144 -14 7 -34 18 -45 25 -64 39 -473 283 -490 292 -11 6 -155 92 -320 190
-165 98 -309 184 -320 189 -19 11 -223 132 -835 497 -151 90 -279 166 -285
168 -5 2 -61 35 -125 74 -63 38 -117 71 -121 72 -3 2 -70 -35 -150 -82z"/>
<path d="M3475 5106 c-76 -47 -538 -322 -570 -340 -11 -6 -99 -58 -195 -115
-96 -58 -226 -134 -287 -171 l-113 -67 30 -21 c16 -12 31 -22 34 -22 2 0 107
-61 231 -135 125 -74 229 -135 232 -135 2 0 19 -11 37 -25 18 -14 35 -25 38
-25 3 0 149 -85 324 -189 287 -170 320 -187 339 -176 11 7 263 157 560 333
297 176 569 337 604 358 40 23 58 40 50 43 -19 8 -407 238 -441 262 -15 11
-30 19 -33 19 -3 0 -22 11 -43 24 -20 13 -147 89 -282 169 -135 80 -261 154
-280 166 -19 11 -42 24 -50 28 -8 3 -17 9 -20 12 -6 7 -86 51 -91 50 -2 0 -35
-20 -74 -43z"/>
<path d="M632 3510 c0 -863 3 -1568 7 -1566 3 2 175 104 381 226 206 123 389
231 407 241 123 69 460 274 468 284 10 12 14 1630 4 1638 -2 2 -67 41 -144 87
-77 45 -210 124 -295 175 -85 51 -267 159 -405 240 -137 81 -286 170 -331 197
-45 26 -84 48 -87 48 -3 0 -5 -706 -5 -1570z"/>
<path d="M2173 3515 c0 -360 2 -655 4 -655 5 0 140 78 250 144 56 34 317 189
631 375 199 118 222 134 205 146 -10 6 -117 71 -238 142 -121 72 -344 204
-495 293 -151 90 -290 171 -307 179 -18 8 -33 19 -33 23 0 4 -4 8 -9 8 -5 0
-8 -288 -8 -655z"/>
<path d="M3440 3286 c-58 -34 -229 -136 -380 -226 -520 -308 -745 -442 -748
-445 -2 -2 162 -103 213 -131 11 -5 238 -140 505 -298 267 -159 495 -293 507
-299 19 -8 33 -4 80 25 74 45 551 329 578 344 28 15 433 255 527 312 l76 46
-116 69 c-64 39 -130 78 -147 87 -106 62 -686 407 -715 425 -62 40 -261 155
-268 155 -4 -1 -54 -29 -112 -64z"/>
<path d="M1810 2319 c-118 -72 -223 -133 -232 -136 -10 -3 -18 -9 -18 -13 0
-5 -6 -10 -13 -12 -10 -2 -359 -206 -477 -279 -8 -5 -73 -43 -145 -85 -71 -42
-136 -81 -142 -86 -10 -8 4 -20 50 -48 150 -89 455 -269 487 -287 19 -11 111
-66 203 -122 93 -55 169 -101 171 -101 3 0 127 -75 186 -111 14 -9 93 -55 175
-104 83 -48 317 -187 520 -308 204 -121 384 -228 400 -237 17 -8 41 -23 55
-32 64 -40 518 -308 524 -308 3 0 173 100 378 222 205 122 382 226 393 232 54
30 423 250 447 267 15 10 29 19 32 19 2 0 58 32 123 71 136 82 140 84 498 296
149 88 378 224 510 303 132 78 254 150 270 160 17 9 54 32 83 50 l54 33 -49
27 c-69 39 -279 163 -374 220 -44 28 -82 50 -85 50 -2 0 -27 15 -57 33 -29 17
-61 37 -72 44 -11 6 -90 53 -175 104 -311 185 -376 223 -420 247 l-45 24 -125
-75 c-69 -41 -197 -118 -285 -170 -88 -51 -221 -130 -295 -174 -645 -382 -803
-474 -816 -469 -12 4 -166 94 -225 131 -9 5 -31 18 -48 28 -17 10 -210 124
-429 254 -218 130 -406 241 -417 247 -11 6 -98 58 -194 115 -96 57 -182 105
-190 107 -9 1 -113 -56 -231 -127z"/>
</g>
</svg>
